<svg width="76" height="675" viewBox="0 0 76 675" fill="none" xmlns="http://www.w3.org/2000/svg">
<path opacity="0.5" d="M-35.9925 2.49017C-9.74225 17.4928 13.0019 37.9277 30.7189 62.428C47.8869 86.2056 59.779 119.992 42.867 143.953C27.8519 165.531 -2.03521 168.739 -28.1087 172.082C-64.621 176.823 -102.724 186.97 -127.911 213.844C-153.098 240.719 -158.425 288.583 -130.458 312.77C-106.201 333.683 -70.1194 328.754 -38.2428 324.89C-6.36626 321.026 31.6677 321.626 49.8784 347.815C59.5375 361.763 60.9911 380.114 57.7199 396.769C49.9024 436.748 9.16172 471.385 -30.2735 461.192C-42.5044 458.015 -54.5731 449.64 -57.2015 437.22C-61.5929 416.508 -37.1382 400.08 -15.9314 400.544C10.5412 401.173 35.1277 417.707 49.9031 439.79C64.6785 461.873 70.7229 488.776 72.3232 515.28C75.4853 570.802 60.6143 625.859 29.9281 672.239" stroke="white" stroke-width="4.63276" stroke-linecap="round" stroke-linejoin="round" stroke-dasharray="4.59 12.28"/>
<path d="M38.969 272.71C40.8752 273.674 42.659 274.863 44.282 276.252L44.9365 276.798C46.4801 276.69 48.0275 276.946 49.4535 277.547C50.8795 278.148 52.144 279.076 53.1448 280.256C51.2044 274.042 45.4448 270.608 38.969 272.71ZM43.4581 273.657C43.0962 273.657 43.0346 273.072 43.3965 273.025C44.665 272.869 45.944 273.22 46.954 274.003C47.108 274.127 47.0156 274.465 46.7923 274.365C45.7489 273.88 44.6088 273.638 43.4581 273.657Z" fill="#8CC5DF"/>
<path d="M50.1957 281.688C51.6606 283.241 52.8786 285.009 53.807 286.932C55.0569 286.77 56.3274 286.928 57.5001 287.39C58.6727 287.851 59.7095 288.602 60.5137 289.573C60.3499 288.673 60.0514 287.804 59.6282 286.993C58.7104 285.315 57.3396 283.927 55.672 282.989C54.0044 282.051 52.107 281.6 50.1957 281.688ZM52.8753 283.736C52.4287 283.736 52.4672 283.089 52.8753 283.059C53.463 283.018 54.0525 283.104 54.6039 283.311C55.1553 283.518 55.6556 283.842 56.0708 284.26C56.1044 284.302 56.1225 284.354 56.1218 284.407C56.1212 284.461 56.1019 284.513 56.0673 284.554C56.0327 284.595 55.985 284.622 55.9322 284.632C55.8795 284.641 55.825 284.632 55.7782 284.606C54.929 284.012 53.9113 283.707 52.8753 283.736Z" fill="#8CC5DF"/>
<path d="M46.0377 277.699C47.1927 278.7 48.3477 279.771 49.4873 280.926C50.7794 280.728 52.0966 280.765 53.3758 281.034C53.3794 281 53.3794 280.967 53.3758 280.933C53.3408 280.958 53.2992 280.971 53.2565 280.971C53.2137 280.971 53.1721 280.958 53.1371 280.933C50.8117 279.062 48.8097 278.007 46.0377 277.699Z" fill="#B2D7E8"/>
<path d="M49.1793 302.74C49.1793 302.809 49.1177 302.871 49.0869 302.948C47.2502 306.835 45.0918 310.562 42.6343 314.09L42.3032 314.552C50.3882 312.981 55.6858 305.897 58.8583 298.72C60.0236 296.321 60.6316 293.688 60.637 291.02C60.637 291.02 60.5908 291.02 60.5754 290.959C59.6892 289.658 58.3937 288.69 56.8948 288.21C57.6648 289.889 56.4482 293.3 55.9707 294.609C54.7455 297.929 52.5001 300.775 49.5566 302.74C49.5001 302.775 49.4347 302.794 49.368 302.794C49.3012 302.794 49.2358 302.775 49.1793 302.74Z" fill="#B2D7E8"/>
<path d="M23.7231 292.168C23.4426 292.215 23.1782 292.331 22.9538 292.506C22.7293 292.681 22.5518 292.908 22.4372 293.169C22.311 293.447 22.2707 293.757 22.3215 294.059C22.3722 294.361 22.5117 294.641 22.7221 294.863C22.9562 295.084 23.2341 295.254 23.5378 295.361C23.8414 295.468 24.1642 295.511 24.4854 295.486C24.8497 295.457 25.2036 295.351 25.5236 295.174C25.8436 294.998 26.1223 294.755 26.3411 294.462L26.01 294.17C25.2939 293.523 24.5393 292.845 23.7847 292.137L23.7231 292.168Z" fill="#B2D7E8"/>
<path d="M17.6635 304.557C17.403 304.801 17.1823 305.084 17.0092 305.396C16.963 305.527 16.9168 305.488 17.0092 305.635C17.1467 305.748 17.2996 305.841 17.4634 305.912L18.1716 306.335C18.5257 305.819 18.8567 305.265 19.2339 304.749C18.849 304.534 18.4641 304.311 18.033 304.049C17.9176 304.218 17.7867 304.38 17.6635 304.557Z" fill="#B2D7E8"/>
<path d="M10.094 292.176C4.64238 295.487 -0.254829 299.775 2.73278 303.726C5.84241 307.684 9.54026 311.143 13.6976 313.982L14.4676 312.904C14.3958 312.844 14.3463 312.761 14.3272 312.67C14.3081 312.578 14.3205 312.483 14.3623 312.399C14.4042 312.315 14.4731 312.248 14.5579 312.208C14.6427 312.169 14.7384 312.159 14.8295 312.18C16.0941 312.491 17.415 312.491 18.6795 312.18C18.7463 312.168 18.8153 312.181 18.872 312.219L18.6102 310.894C17.5607 311.129 16.476 311.16 15.4147 310.987C15.0605 310.933 15.1606 310.34 15.5225 310.363C16.6691 310.486 17.8255 310.486 18.9721 310.363C19.015 310.352 19.0601 310.352 19.103 310.363L18.4562 309.023C15.7073 310.04 12.6119 309.146 9.5858 306.859C7.7994 305.512 5.73579 303.525 5.61259 301.138C5.48939 298.751 7.66079 296.657 9.2932 295.109C9.35336 295.049 9.43204 295.011 9.5165 295.001C9.42029 294.57 9.4554 294.119 9.61731 293.707C9.77922 293.296 10.0605 292.942 10.4251 292.691L10.094 292.176Z" fill="#65B1D2"/>
<path d="M9.73211 295.81C8.0227 297.635 6.2363 299.66 6.9601 302.47C7.4375 304.311 10.094 306.159 11.5801 307.013C13.5667 308.161 15.792 309.108 18.0635 308.33C19.4201 307.73 20.6508 306.878 21.6902 305.82C21.0228 305.633 20.3774 305.375 19.7652 305.05C19.4536 305.764 19.0581 306.439 18.5871 307.06C18.5349 307.142 18.4521 307.2 18.3569 307.222C18.2616 307.244 18.1617 307.227 18.0789 307.175C17.5861 306.89 17.0702 306.628 16.6005 306.32C16.3233 306.128 16.0692 305.905 16.1 305.55C16.1308 305.196 16.5004 304.78 16.7314 304.511C16.9624 304.241 17.1703 303.949 17.3859 303.672C14.1981 301.546 10.7408 298.397 9.73211 295.81Z" fill="#B2D7E8"/>
<path d="M19.1184 297.219C18.0635 296.318 10.6484 289.519 10.7331 294.978C10.7331 297.234 14.1827 299.675 15.8459 301.023C17.5091 302.37 20.0655 304.696 22.2985 304.873C22.3785 304.878 22.456 304.902 22.5244 304.944C22.5928 304.985 22.6501 305.043 22.6912 305.111C22.6848 305.056 22.6953 305 22.7215 304.95C22.7476 304.901 22.788 304.86 22.8375 304.834C27.1881 302.524 20.7046 298.566 19.1184 297.219Z" fill="#65B1D2"/>
<path d="M10.094 292.175L10.402 292.691C10.9919 292.31 11.6513 292.048 12.3424 291.921C14.1288 291.536 15.307 292.745 16.6314 293.823C18.9414 295.71 21.2514 297.673 23.4536 299.698C25.9946 302.008 26.8801 304.103 23.0378 305.373C22.99 305.392 22.937 305.394 22.8879 305.379C22.8388 305.364 22.7966 305.332 22.7683 305.289C22.7915 305.413 22.7661 305.541 22.6973 305.647C22.6285 305.753 22.5216 305.829 22.3987 305.858C21.4303 307.304 20.0481 308.423 18.4332 309.069L19.08 310.44C19.1127 310.461 19.1386 310.491 19.1547 310.526C19.1708 310.561 19.1763 310.6 19.1706 310.638C19.1649 310.677 19.1482 310.713 19.1226 310.742C19.0969 310.771 19.0634 310.791 19.0261 310.802L18.5872 310.91L18.8182 312.196C18.8615 312.22 18.8976 312.255 18.9228 312.297C18.9479 312.34 18.9612 312.389 18.9612 312.438C18.9612 312.488 18.9479 312.536 18.9228 312.579C18.8976 312.622 18.8615 312.657 18.8182 312.681C17.4612 313.222 15.9667 313.317 14.5524 312.95C14.5088 312.938 14.4673 312.92 14.4292 312.896L13.6592 313.974C15.7613 315.476 17.9481 316.846 20.1426 318.148C20.1807 317.883 20.2532 317.624 20.3582 317.378C21.6133 314.413 25.4402 311.171 27.6347 308.908C30.2833 306.14 33.1718 303.612 36.2664 301.354C32.8487 299.609 29.6727 297.427 26.8185 294.863C26.0485 296.765 23.0301 296.811 21.8058 295.325C21.5077 294.952 21.3201 294.504 21.2643 294.03C21.2084 293.556 21.2867 293.077 21.4901 292.645C21.7611 292.014 22.2703 291.516 22.9069 291.259C21.6492 290.046 20.5356 288.692 19.5882 287.224C17.6555 288.164 13.7516 289.942 10.094 292.175Z" fill="#65B1D2"/>
<path d="M22.4756 316.6C22.183 316.977 21.8827 317.37 21.5978 317.724C21.956 318.73 22.6902 319.558 23.646 320.034C24.7017 320.747 25.7968 321.4 26.9262 321.99C27.8117 322.529 29.8677 324.2 30.8687 324.385C33.0709 324.785 35.1576 321.482 36.4281 320.034C38.5917 317.556 40.5952 314.943 42.4264 312.211C43.7585 310.224 45.0059 308.184 46.1455 306.051C47.3852 303.802 49.5104 300.715 49.8261 297.935C46.9629 300.091 43.7026 301.661 40.2319 302.555C40.2132 302.612 40.183 302.664 40.1432 302.708C40.1033 302.752 40.0548 302.788 40.0005 302.813C39.9462 302.837 39.8875 302.85 39.8279 302.851C39.7683 302.852 39.7092 302.84 39.6544 302.817C38.7227 302.478 37.8218 302.047 36.9286 301.662C33.2249 305.173 29.4442 308.592 26.0407 312.388C24.9781 313.589 23.0839 315.183 22.4756 316.6ZM32.3548 320.812C32.3058 320.856 32.2413 320.878 32.1756 320.875C32.1099 320.871 32.0483 320.842 32.0044 320.793C31.9605 320.744 31.9379 320.679 31.9415 320.613C31.9451 320.548 31.9747 320.486 32.0237 320.442C32.7224 319.711 33.378 318.94 33.9872 318.132C34.2567 317.778 34.8419 318.132 34.5878 318.51C33.9806 319.408 33.2256 320.197 32.3548 320.843L32.3548 320.812ZM32.1546 322.783C31.9236 322.929 31.6618 322.552 31.8851 322.39C32.9139 321.607 33.7621 320.612 34.3722 319.472C34.5878 319.087 35.1422 319.472 34.9497 319.842C34.2928 321.059 33.3293 322.084 32.1546 322.814L32.1546 322.783Z" fill="#65B1D2"/>
<path d="M24.0465 275.613C21.5825 276.983 19.311 278.238 19.1262 281.611C18.9876 284.067 20.3505 286.231 21.8135 288.087C26.6295 294.083 32.8354 298.814 39.8931 301.87C43.4253 300.812 46.6892 299.008 49.4642 296.58C51.0043 295.209 52.7753 293.454 53.2681 291.375C53.8841 288.841 52.4365 286.793 51.0505 284.976C46.8924 279.524 40.0009 272.202 32.5704 272.587C29.4981 272.71 26.703 274.134 24.0465 275.613ZM20.5738 280.741C20.5643 280.157 20.6836 279.579 20.9232 279.046C21.1628 278.514 21.5167 278.041 21.9598 277.661C22.0139 277.613 22.0848 277.588 22.157 277.593C22.2293 277.597 22.2968 277.63 22.3448 277.684C22.3928 277.738 22.4173 277.809 22.413 277.881C22.4086 277.954 22.3758 278.021 22.3217 278.069C21.9715 278.419 21.6956 278.836 21.5104 279.295C21.3251 279.754 21.2344 280.246 21.2437 280.741C21.2315 280.821 21.191 280.894 21.1295 280.947C21.0681 281 20.9897 281.029 20.9087 281.029C20.8277 281.029 20.7493 281 20.6879 280.947C20.6264 280.894 20.5859 280.821 20.5738 280.741ZM22.1138 280.849C21.8982 281.218 21.3438 280.849 21.544 280.487C21.7442 280.125 22.1908 279.524 22.5604 279.078C22.593 279.026 22.6451 278.989 22.705 278.975C22.7649 278.961 22.8278 278.972 22.8799 279.005C22.932 279.037 22.969 279.089 22.9827 279.149C22.9964 279.209 22.9857 279.272 22.9531 279.324C22.7032 279.847 22.4256 280.356 22.1215 280.849L22.1138 280.849Z" fill="#65B1D2"/>
<path d="M6.07461 293.762C3.5721 295.54 -0.616701 297.804 0.0763004 301.462C0.846301 305.358 6.03612 309.277 8.84663 311.68C12.3121 314.648 16.1734 317.12 20.3197 319.025C20.7049 319.504 21.1714 319.91 21.698 320.227C23.5537 321.551 25.6558 322.629 27.6039 323.807C28.5972 324.415 29.8446 325.555 31.0073 325.801C32.94 326.233 34.0873 324.315 35.3193 323.053C37.5672 320.655 39.6631 318.119 41.5948 315.46C41.6526 315.51 41.72 315.547 41.7929 315.57C41.8658 315.592 41.9425 315.6 42.0183 315.591C51.7665 314.382 59.4281 303.918 61.4455 294.801C62.8084 288.71 59.5513 282.72 54.0226 281.18C53.2526 273.572 45.5526 269.16 38.484 271.74C38.372 271.78 38.2766 271.856 38.2125 271.956C38.1484 272.057 38.1194 272.175 38.1298 272.294C36.5404 271.605 34.8265 271.248 33.094 271.247C26.6491 271.293 16.1539 276.306 18.1636 284.075C18.3482 284.793 18.6062 285.489 18.9336 286.154C14.4435 288.328 10.1423 290.873 6.07461 293.762ZM2.73281 303.718C-0.254804 299.775 4.64241 295.486 10.094 292.168C13.7515 289.935 17.6554 288.156 19.565 287.217C20.5283 288.707 21.6628 290.079 22.9454 291.305C22.3088 291.562 21.7995 292.061 21.5286 292.691C21.3252 293.123 21.2469 293.603 21.3027 294.076C21.3585 294.55 21.5462 294.999 21.8443 295.371C23.0686 296.857 26.1024 296.811 26.857 294.909C29.7112 297.474 32.8872 299.656 36.3049 301.4C33.2103 303.658 30.3218 306.186 27.6732 308.954C25.4787 311.187 21.6518 314.429 20.3967 317.424C20.2916 317.67 20.2192 317.929 20.181 318.194C17.9865 316.893 15.7997 315.522 13.6976 314.02C9.5369 311.168 5.83887 307.693 2.73281 303.718ZM19.1261 281.611C19.3109 278.238 21.5825 276.991 24.0465 275.613C26.703 274.134 29.4981 272.717 32.5935 272.533C40.0009 272.148 46.8924 279.463 51.0735 284.922C52.4595 286.739 53.9071 288.772 53.2911 291.321C52.7983 293.4 50.9811 295.171 49.4873 296.526C46.7144 298.962 43.4503 300.774 39.9162 301.839C32.8559 298.802 26.6423 294.089 21.8135 288.11C20.3582 286.27 18.9875 284.067 19.1261 281.611ZM22.4372 293.161C22.5518 292.901 22.7293 292.673 22.9538 292.498C23.1782 292.324 23.4426 292.207 23.7231 292.16L23.7847 292.16C24.5547 292.868 25.3247 293.546 26.01 294.193L26.3411 294.485C26.1223 294.778 25.8436 295.021 25.5236 295.198C25.2036 295.374 24.8497 295.481 24.4854 295.51C24.1642 295.534 23.8414 295.492 23.5378 295.384C23.2341 295.277 22.9562 295.107 22.7221 294.886C22.5069 294.662 22.3646 294.378 22.3138 294.071C22.2629 293.765 22.3059 293.45 22.4372 293.169L22.4372 293.161ZM44.2821 276.221C42.659 274.832 40.8753 273.643 38.9691 272.679C45.4448 270.615 51.2044 274.05 53.1448 280.225C52.1441 279.045 50.8795 278.117 49.4535 277.516C48.0275 276.916 46.4801 276.659 44.9366 276.768L44.2821 276.221ZM21.5979 317.801C21.8828 317.424 22.1831 317.031 22.4757 316.677C23.084 315.229 24.9936 313.635 26.0408 312.465C29.4442 308.654 33.2249 305.25 36.9286 301.739C37.8218 302.162 38.7227 302.555 39.6544 302.894C39.7093 302.917 39.7683 302.929 39.8279 302.928C39.8875 302.927 39.9463 302.914 40.0005 302.89C40.0548 302.865 40.1034 302.829 40.1432 302.785C40.183 302.741 40.2132 302.689 40.2319 302.632C43.7026 301.738 46.9629 300.168 49.8261 298.012C49.5104 300.792 47.3852 303.879 46.1455 306.128C45.0059 308.222 43.7585 310.263 42.4264 312.288C40.5952 315.02 38.5917 317.633 36.4281 320.111C35.1576 321.559 33.0709 324.862 30.8687 324.462C29.8677 324.277 27.7887 322.606 26.9263 322.067C25.7961 321.467 24.701 320.804 23.6461 320.08C22.6872 319.601 21.9526 318.767 21.5979 317.755L21.5979 317.801ZM49.4873 280.926C48.3708 279.771 47.1773 278.7 46.0377 277.699C48.8097 278.007 50.8117 279.062 53.114 280.941C53.149 280.966 53.1907 280.979 53.2334 280.979C53.2761 280.979 53.3178 280.966 53.3527 280.941C53.3563 280.974 53.3563 281.008 53.3527 281.041C52.0815 280.772 50.7724 280.733 49.4873 280.926ZM53.807 286.932C52.8786 285.009 51.6606 283.241 50.1957 281.688C52.107 281.601 54.0044 282.051 55.672 282.989C57.3396 283.927 58.7104 285.315 59.6283 286.993C60.0434 287.805 60.3341 288.675 60.4907 289.573C59.6886 288.606 58.6556 287.857 57.4874 287.396C56.3191 286.934 55.0533 286.774 53.807 286.932ZM54.2382 287.917C54.8476 287.864 55.4614 287.892 56.0632 288.002C57.0719 290.089 55.2932 294.162 54.2921 296.056C53.1836 298.141 51.6582 299.976 49.8107 301.446C50.5395 300.12 50.9235 298.632 50.9272 297.119C53.7146 294.593 55.4395 291.436 54.2382 287.917ZM49.0946 302.917C49.0946 302.84 49.1562 302.778 49.187 302.709C49.2435 302.745 49.3089 302.763 49.3757 302.763C49.4424 302.763 49.5078 302.745 49.5643 302.709C52.5157 300.76 54.7745 297.928 56.017 294.616C56.4944 293.307 57.711 289.896 56.941 288.218C58.4399 288.698 59.7354 289.666 60.6216 290.967C60.6216 290.967 60.6216 291.005 60.6832 291.028C60.6778 293.696 60.0698 296.328 58.9045 298.728C55.6936 305.905 50.4344 312.989 42.3109 314.529L42.642 314.067C45.0972 310.536 47.253 306.807 49.0869 302.917L49.0946 302.917Z" fill="#222221"/>
<path d="M10.402 292.73C10.0375 292.98 9.75616 293.334 9.59425 293.746C9.43234 294.157 9.39723 294.608 9.49344 295.04C9.40898 295.05 9.3303 295.088 9.27014 295.148C7.63773 296.688 5.42013 298.697 5.58953 301.177C5.75893 303.656 7.77634 305.55 9.56274 306.898C12.5888 309.208 15.7228 310.078 18.4332 309.062C20.0523 308.407 21.4349 307.276 22.3987 305.82C22.5216 305.79 22.6285 305.715 22.6973 305.609C22.7661 305.503 22.7915 305.374 22.7683 305.25C22.7965 305.293 22.8388 305.325 22.8879 305.34C22.937 305.356 22.99 305.354 23.0378 305.335C26.8878 304.064 25.9946 301.962 23.4536 299.66C21.2283 297.642 18.9645 295.671 16.6314 293.785C15.307 292.707 14.1288 291.475 12.3424 291.883C11.6456 292.033 10.9859 292.321 10.402 292.73ZM6.96013 302.54C6.23633 299.737 8.02273 297.704 9.73214 295.879C10.7408 298.435 14.2367 301.585 17.386 303.671C17.1704 303.949 16.9548 304.234 16.7315 304.511C16.5082 304.788 16.1386 305.15 16.1001 305.55C16.0616 305.951 16.3234 306.143 16.6006 306.32C17.0703 306.628 17.5862 306.89 18.079 307.175C18.1617 307.227 18.2617 307.244 18.3569 307.222C18.4521 307.2 18.5349 307.142 18.5872 307.06C19.0581 306.439 19.4536 305.764 19.7653 305.05C20.3775 305.375 21.0228 305.633 21.6903 305.82C20.6489 306.891 19.4128 307.753 18.0482 308.361C15.7382 309.131 13.5514 308.191 11.5647 307.044C10.094 306.189 7.43753 304.341 6.96013 302.501L6.96013 302.54ZM10.7331 295.017C10.6715 289.573 18.0636 296.356 19.1185 297.257C20.7047 298.605 27.1881 302.563 22.8376 304.85C22.7881 304.876 22.7476 304.916 22.7215 304.966C22.6954 305.015 22.6848 305.071 22.6913 305.127C22.6501 305.058 22.5929 305 22.5245 304.959C22.456 304.917 22.3785 304.893 22.2986 304.888C20.0656 304.734 17.5092 302.409 15.846 301.038C14.1827 299.667 10.7639 297.234 10.7331 294.978L10.7331 295.017ZM17.0087 305.435C17.1818 305.123 17.4026 304.839 17.6632 304.595C17.7864 304.418 17.9173 304.257 18.0405 304.087C18.4563 304.349 18.8567 304.572 19.2417 304.788C18.8644 305.304 18.5333 305.858 18.1791 306.374L17.4707 305.951C17.3068 305.88 17.1539 305.787 17.0164 305.673C16.9163 305.489 16.9625 305.527 17.0087 305.396L17.0087 305.435Z" fill="#222221"/>
<path d="M21.9598 277.676C21.5167 278.056 21.1628 278.529 20.9232 279.062C20.6836 279.594 20.5643 280.173 20.5738 280.756C20.5859 280.837 20.6264 280.91 20.6879 280.962C20.7493 281.015 20.8277 281.044 20.9087 281.044C20.9897 281.044 21.0681 281.015 21.1295 280.962C21.191 280.91 21.2315 280.837 21.2437 280.756C21.2365 280.264 21.3282 279.775 21.5134 279.319C21.6986 278.863 21.9734 278.448 22.3217 278.1C22.3778 278.052 22.4126 277.984 22.4184 277.91C22.4242 277.836 22.4005 277.763 22.3525 277.707C22.3045 277.651 22.2361 277.616 22.1625 277.61C22.0889 277.605 22.0159 277.628 21.9598 277.676Z" fill="#222221"/>
<path d="M21.552 280.486C21.3211 280.848 21.9061 281.256 22.1217 280.848C22.4288 280.35 22.7089 279.836 22.9608 279.309C22.9934 279.256 23.0041 279.194 22.9904 279.134C22.9767 279.074 22.9397 279.022 22.8876 278.989C22.8356 278.956 22.7727 278.946 22.7128 278.959C22.6528 278.973 22.6008 279.01 22.5682 279.062C22.1987 279.524 21.8984 280.017 21.552 280.486Z" fill="#222221"/>
<path d="M15.4994 310.34C15.1375 310.34 15.0374 310.91 15.3916 310.964C16.4529 311.137 17.5376 311.106 18.5871 310.871L19.026 310.763C19.0633 310.753 19.0968 310.732 19.1225 310.703C19.1481 310.674 19.1648 310.638 19.1705 310.6C19.1763 310.562 19.1707 310.522 19.1546 310.487C19.1385 310.452 19.1126 310.422 19.0799 310.401C19.037 310.39 18.9919 310.39 18.949 310.401C17.8002 310.504 16.6438 310.483 15.4994 310.34Z" fill="#222221"/>
<path d="M14.8218 312.172C14.7307 312.151 14.635 312.161 14.5502 312.2C14.4654 312.24 14.3965 312.307 14.3547 312.391C14.3128 312.475 14.3004 312.57 14.3195 312.662C14.3386 312.754 14.3881 312.836 14.4599 312.896C14.4981 312.92 14.5396 312.938 14.5831 312.95C15.9975 313.317 17.492 313.222 18.8489 312.681C18.8923 312.657 18.9284 312.621 18.9535 312.579C18.9787 312.536 18.9919 312.487 18.9919 312.438C18.9919 312.388 18.9787 312.34 18.9535 312.297C18.9284 312.255 18.8923 312.219 18.8489 312.195C18.7922 312.158 18.7232 312.144 18.6564 312.157C17.398 312.47 16.0827 312.475 14.8218 312.172Z" fill="#222221"/>
<path d="M43.4197 273.026C43.0578 273.072 43.1194 273.665 43.4813 273.657C44.632 273.638 45.772 273.88 46.8154 274.365C47.0387 274.466 47.1311 274.127 46.9771 274.004C45.9671 273.22 44.6881 272.869 43.4197 273.026Z" fill="#222221"/>
<path d="M52.8907 283.059C52.4672 283.059 52.4287 283.752 52.8907 283.736C53.9198 283.706 54.9315 284.006 55.7783 284.591C55.8251 284.617 55.8795 284.626 55.9323 284.617C55.985 284.607 56.0328 284.579 56.0674 284.538C56.102 284.497 56.1212 284.446 56.1219 284.392C56.1225 284.338 56.1045 284.286 56.0709 284.245C55.656 283.831 55.1576 283.512 54.6091 283.307C54.0606 283.103 53.4747 283.018 52.8907 283.059Z" fill="#222221"/>
<path d="M32.0243 320.449C32 320.471 31.9803 320.497 31.9662 320.527C31.9521 320.556 31.9439 320.588 31.9421 320.62C31.9403 320.653 31.945 320.685 31.9558 320.716C31.9666 320.747 31.9833 320.775 32.0051 320.8C32.0268 320.824 32.0531 320.844 32.0825 320.858C32.1118 320.872 32.1437 320.88 32.1762 320.882C32.2087 320.883 32.2413 320.879 32.272 320.868C32.3027 320.857 32.3311 320.84 32.3553 320.819C33.224 320.18 33.9787 319.399 34.5878 318.509C34.8418 318.124 34.2568 317.778 33.9873 318.132C33.3785 318.942 32.7231 319.716 32.0243 320.449Z" fill="#222221"/>
<path d="M31.9082 322.421C31.6849 322.583 31.9082 322.96 32.1777 322.814C33.3485 322.092 34.3116 321.078 34.9728 319.872C35.1807 319.487 34.6109 319.102 34.3953 319.503C33.7853 320.643 32.937 321.638 31.9082 322.421Z" fill="#222221"/>
<path d="M3.79516 591.231C3.57513 592.522 3.80982 593.848 4.45917 594.985C5.01767 596.735 5.91041 598.444 6.62358 600.136C7.97834 603.361 9.34358 606.578 10.7193 609.789C12.9217 614.945 15.2734 620.052 17.3835 625.252C17.3674 625.182 17.3678 625.109 17.3847 625.039C17.4149 624.856 17.4536 624.679 17.4908 624.494C15.8461 617.508 12.2568 611.001 9.5523 604.396C8.4988 601.808 7.47767 599.212 6.48892 596.609C5.75981 594.693 4.95236 592.943 5.81287 590.969C5.84613 590.89 5.9014 590.823 5.972 590.775C6.0426 590.727 6.12552 590.701 6.21076 590.699C6.15686 590.47 6.05277 590.246 5.97112 590.023L3.79516 591.231Z" fill="#DA9A36"/>
<path d="M49.6075 575.043C49.8937 575.978 50.0986 576.911 50.2905 577.415C51.4412 580.478 52.5954 583.536 53.7532 586.588C56.1748 593.018 58.8267 599.43 60.8627 605.995L61.1888 605.918C61.6258 605.815 61.7892 606.509 61.3521 606.612L60.6583 606.775C60.6034 606.785 60.5471 606.78 60.4942 606.763L60.3277 606.802C61.2743 607.083 62.1796 607.488 63.0202 608.006C63.1155 608.072 63.1831 608.171 63.21 608.283L63.4459 608.228C61.8202 602.753 59.8341 597.458 57.7048 592.145C56.7703 589.824 55.8428 587.502 55.0023 585.144C54.5437 583.88 54.1151 582.61 53.7167 581.332C53.5081 580.663 51.6511 573.148 49.6075 575.043Z" fill="#DA9A36"/>
<path d="M17.3974 625.248C17.7235 626.043 18.0375 626.848 18.3498 627.645C23.6838 623.336 30.0542 620.101 36.8856 619.291L36.9272 619.282C36.9651 619.212 37.019 619.152 37.0844 619.107C37.1499 619.061 37.225 619.032 37.3038 619.022C37.3826 619.011 37.4628 619.019 37.5379 619.045C37.613 619.071 37.6809 619.114 37.7361 619.172C38.3308 619.8 38.9378 620.917 39.9352 620.924C40.8151 620.929 42.4343 619.098 42.0816 618.222C42.0533 618.169 42.0383 618.11 42.038 618.049C42.0377 617.989 42.0521 617.93 42.0799 617.876C42.1077 617.823 42.1481 617.777 42.1976 617.743C42.2471 617.708 42.3042 617.687 42.364 617.679C42.3993 617.62 42.4472 617.569 42.5044 617.529C48.7478 612.981 56.1771 610.341 63.891 609.932C63.7538 609.349 63.5627 608.786 63.3839 608.213L63.148 608.269C63.1668 608.326 63.1731 608.387 63.1665 608.446C63.1598 608.506 63.1404 608.564 63.1096 608.616C63.0787 608.667 63.0371 608.712 62.9875 608.746C62.938 608.78 62.8817 608.804 62.8224 608.814C54.9413 609.762 47.4796 612.886 41.2727 617.834C41.1967 617.895 41.1016 617.928 41.0037 617.927C40.9059 617.926 40.8116 617.891 40.7368 617.828C40.7093 617.909 40.6554 617.978 40.5839 618.024C40.5123 618.07 40.4273 618.09 40.3426 618.082C40.3251 618.125 40.2975 618.164 40.2619 618.195C40.2264 618.225 40.1841 618.247 40.1386 618.257C40.093 618.268 40.0455 618.268 40.0002 618.256C39.9548 618.245 39.9128 618.223 39.8778 618.192C39.6831 618.035 39.4701 617.904 39.2435 617.799C39.2155 617.813 39.1846 617.82 39.1533 617.82C31.4906 618.128 24.1092 620.791 18.0153 625.447C17.9634 625.482 17.9044 625.504 17.8425 625.513C17.7807 625.522 17.7176 625.517 17.6582 625.497C17.5987 625.478 17.5443 625.446 17.4992 625.403C17.454 625.36 17.4192 625.307 17.3974 625.248Z" fill="#DA9A36"/>
<path d="M2.40035 592.46C2.55436 593.83 3.60912 595.449 4.13941 596.737C5.03464 598.891 5.93519 601.037 6.84431 603.188C10.3722 611.518 13.7352 620.018 17.8336 628.097C17.5679 628.555 18.1463 629.238 18.6556 628.914L19.1074 628.624C19.1953 628.565 19.2671 628.486 19.3163 628.392C24.6357 624.145 30.4756 621.767 37.0767 620.103C37.8204 621.334 39.2759 622.478 40.7398 621.884C41.7829 621.463 43.1735 619.781 42.9873 618.492C49.2266 614.205 56.4187 611.506 63.9384 610.631C64.0007 610.62 64.0575 610.588 64.1004 610.542C64.1479 610.588 64.2087 610.618 64.2743 610.627C64.3398 610.637 64.4066 610.625 64.4652 610.594C64.5237 610.563 64.571 610.515 64.6003 610.455C64.6296 610.396 64.6393 610.329 64.6281 610.264C63.0465 601.212 58.6448 592.934 55.596 584.338C55.0968 582.933 52.9753 570.904 49.187 574.065C48.9841 573.405 48.5761 572.826 48.0221 572.414C45.6439 571.114 41.0198 574.458 39.0908 575.688C34.9723 578.371 31.5244 581.963 29.0122 586.188C28.8543 586.172 28.6956 586.21 28.5613 586.294C21.5077 581.775 12.405 581.428 4.69922 584.465C4.57884 584.517 4.4836 584.613 4.43406 584.735C4.38451 584.856 4.38465 584.992 4.43443 585.113C4.37135 585.17 4.32801 585.245 4.3107 585.328C4.29339 585.411 4.30301 585.498 4.33816 585.575C4.77497 586.746 5.19955 587.928 5.62576 589.116C3.93054 590.064 2.17485 590.382 2.40035 592.46ZM4.45918 594.985C3.80983 593.848 3.57514 592.522 3.79517 591.231L5.97683 589.985C6.03073 590.214 6.13482 590.439 6.21647 590.661C6.13123 590.663 6.04831 590.689 5.97771 590.737C5.90711 590.785 5.85185 590.852 5.81858 590.931C4.95808 592.905 5.76553 594.656 6.49464 596.571C7.48448 599.179 8.5056 601.775 9.55801 604.358C12.2674 610.984 15.8841 617.514 17.4965 624.456C17.4594 624.641 17.4206 624.818 17.3904 625.001C17.3736 625.071 17.3731 625.144 17.3892 625.214C17.4065 625.283 17.4415 625.347 17.4907 625.398C17.5399 625.45 17.6016 625.488 17.6699 625.509C17.7382 625.53 17.8108 625.533 17.8804 625.517C17.9501 625.501 18.0146 625.468 18.0675 625.42C24.1615 620.764 31.5429 618.101 39.2056 617.793C39.2369 617.793 39.2678 617.786 39.2958 617.772C39.5223 617.877 39.7353 618.009 39.93 618.165C39.9651 618.196 40.007 618.218 40.0524 618.229C40.0978 618.241 40.1453 618.241 40.1908 618.23C40.2364 618.22 40.2787 618.198 40.3142 618.168C40.3497 618.137 40.3774 618.099 40.3949 618.055C40.4796 618.064 40.5646 618.043 40.6362 617.997C40.7077 617.951 40.7616 617.882 40.7891 617.801C40.8638 617.864 40.9582 617.9 41.056 617.901C41.1538 617.902 41.2489 617.869 41.325 617.807C47.5428 612.868 55.0128 609.759 62.8983 608.826C62.9576 608.815 63.0139 608.792 63.0635 608.758C63.113 608.723 63.1546 608.679 63.1855 608.627C63.2164 608.576 63.2358 608.518 63.2424 608.458C63.249 608.398 63.2427 608.338 63.2239 608.28C63.197 608.168 63.1294 608.069 63.0341 608.003C62.2014 607.464 61.301 607.039 60.3563 606.737L60.5228 606.698C60.5757 606.715 60.632 606.719 60.6869 606.71L61.3807 606.547C61.8178 606.444 61.6545 605.75 61.2174 605.853L60.8913 605.93C58.8553 599.365 56.2034 592.953 53.7818 586.523C52.6218 583.462 51.4676 580.404 50.3191 577.35C50.1272 576.846 49.9223 575.913 49.6361 574.977C51.6797 573.083 53.5367 580.598 53.742 581.253C54.1416 582.535 54.5701 583.806 55.0276 585.065C55.8682 587.423 56.8022 589.773 57.7301 592.066C59.8594 597.379 61.8472 602.681 63.4712 608.149C63.6501 608.722 63.8134 609.291 63.9783 609.867C56.2596 610.271 48.8241 612.906 42.5746 617.454C42.5174 617.494 42.4695 617.545 42.4342 617.604C42.3744 617.612 42.3173 617.633 42.2678 617.668C42.2183 617.702 42.1779 617.748 42.1501 617.801C42.1223 617.855 42.1079 617.914 42.1082 617.974C42.1085 618.035 42.1235 618.094 42.1518 618.147C42.5388 619.044 40.8919 620.882 40.0054 620.849C39.008 620.842 38.401 619.725 37.8063 619.097C37.7511 619.039 37.6832 618.996 37.6081 618.97C37.533 618.944 37.4528 618.936 37.374 618.947C37.2952 618.957 37.2201 618.986 37.1547 619.032C37.0892 619.077 37.0354 619.137 36.9974 619.207L36.9558 619.216C30.0966 620.033 23.7263 623.268 18.42 627.57C18.1077 626.773 17.7938 625.968 17.4676 625.173C15.3574 619.973 13.0057 614.867 10.8034 609.71C9.42193 606.497 8.0567 603.279 6.70765 600.057C5.91042 598.444 5.02421 596.763 4.45918 594.985ZM9.24221 601.43C8.20776 598.84 5.53452 594.483 6.52102 591.519C9.4959 599.957 12.3704 608.529 16.1284 616.592C16.1302 616.673 16.1501 616.754 16.1868 616.826C16.2234 616.899 16.2758 616.963 16.3402 617.013C16.4046 617.063 16.4793 617.098 16.559 617.116C16.6386 617.133 16.7212 617.133 16.8006 617.115L17.3406 616.951C17.677 618.38 17.9735 619.826 18.2907 621.267C18.2358 621.286 18.1871 621.32 18.1499 621.365C18.1127 621.41 18.0885 621.464 18.0798 621.522L17.7114 623.41C17.0677 618.56 14.5753 614.131 12.6587 609.691C11.4735 606.958 10.3346 604.205 9.24221 601.43ZM16.5218 616.023C13.5859 605.636 9.19913 595.524 5.45557 585.407C13.254 582.546 21.0863 583.375 28.4626 586.933C32.129 596.877 35.411 607.117 39.672 616.82C32.3655 613.498 24.0392 613.211 16.5218 616.023ZM18.3841 624.152L18.7569 622.19C18.8154 622.211 18.8777 622.22 18.9397 622.215C19.0017 622.211 19.0621 622.193 19.1169 622.164C22.0991 620.428 25.3281 619.157 28.6929 618.394C30.5037 617.967 34.6179 616.999 37.5212 617.326C30.5932 617.599 23.9157 619.991 18.3906 624.18L18.3841 624.152ZM19.7297 620.723C18.5833 620.364 18.4083 618.003 18.2017 616.69C24.1069 614.92 30.391 614.849 36.3348 616.485C34.1039 616.553 31.8844 616.831 29.7054 617.313C27.4389 617.713 25.2203 618.349 23.0855 619.208C22.6096 619.364 20.2354 620.912 19.7362 620.751L19.7297 620.723ZM29.7837 587.039C29.8581 586.991 29.9205 586.926 29.9661 586.85C32.3849 582.743 35.7161 579.248 39.7018 576.635C41.2979 575.608 43.7072 573.898 45.5996 573.694C46.7534 572.934 47.6168 573.388 48.1897 575.054C48.3514 575.492 48.52 575.928 48.6898 576.401C49.1768 577.443 49.5222 578.599 49.9292 579.675C53.2874 588.528 56.3468 597.605 60.2057 606.252C59.9799 606.344 59.7601 606.449 59.5478 606.568L59.4083 606.535C59.3518 606.517 59.2905 606.52 59.2366 606.545C59.1827 606.57 59.1402 606.615 59.1177 606.67C52.199 608.042 45.0234 611.122 40.4523 616.651C37.4788 606.601 33.4125 596.824 29.7837 587.039ZM43.8134 615.003C48.4353 611.183 53.5989 608.825 59.6046 607.089C60.2833 607.366 60.9359 607.702 61.5547 608.095C55.1956 609.03 49.1304 611.391 43.8134 615.003Z" fill="#222221"/>
<path d="M6.52103 591.52C5.53452 594.483 8.24245 598.832 9.24222 601.43C10.3485 604.201 11.4856 606.958 12.6534 609.7C14.57 614.14 17.0624 618.569 17.7061 623.418L18.0851 621.513C18.0938 621.456 18.118 621.402 18.1552 621.357C18.1924 621.312 18.2411 621.278 18.296 621.259C17.958 619.822 17.6199 618.386 17.3459 616.942L16.806 617.106C16.7265 617.125 16.6439 617.125 16.5643 617.107C16.4846 617.09 16.4099 617.055 16.3455 617.005C16.2811 616.955 16.2287 616.891 16.1921 616.818C16.1555 616.745 16.1355 616.665 16.1337 616.583C12.3704 608.529 9.49591 599.957 6.52103 591.52Z" fill="#F5F5F5"/>
<path d="M5.46208 585.435C9.20237 595.538 13.5924 605.664 16.5283 616.051C24.0458 613.239 32.372 613.525 39.6785 616.847C35.4187 607.181 32.1355 596.905 28.4622 586.962C21.0373 583.416 13.2605 582.574 5.46208 585.435ZM12.0058 588.939C11.8954 588.965 11.7792 588.947 11.6828 588.887C11.5863 588.827 11.5175 588.732 11.4916 588.621C11.4656 588.511 11.4845 588.395 11.5442 588.298C11.6039 588.202 11.6994 588.133 11.8098 588.107C16.5622 586.988 23.4929 586.506 27.7654 589.352C27.7947 589.371 27.8202 589.395 27.8402 589.423C27.8602 589.451 27.8745 589.484 27.8821 589.517C27.8897 589.551 27.8906 589.586 27.8847 589.621C27.8788 589.655 27.8662 589.688 27.8476 589.717C27.8291 589.746 27.8049 589.772 27.7765 589.792C27.7481 589.812 27.716 589.826 27.6821 589.834C27.6482 589.841 27.6132 589.842 27.5789 589.836C27.5447 589.83 27.5119 589.818 27.4826 589.799C23.0057 587.36 16.7925 587.966 12.0058 588.939ZM14.9635 600.757C14.3975 600.934 14.1954 600.045 14.7512 599.855C19.2878 598.303 24.2114 598.3 28.7497 599.847C28.8115 599.867 28.8631 599.91 28.8931 599.968C28.9231 600.025 28.9291 600.092 28.9097 600.154C28.8903 600.216 28.8471 600.267 28.7896 600.297C28.7321 600.327 28.6651 600.333 28.6032 600.314C24.105 599.18 19.3787 599.334 14.9635 600.757ZM13.5743 593.3C13.4602 593.327 13.3401 593.308 13.2405 593.246C13.1408 593.184 13.0697 593.086 13.0429 592.972C13.016 592.857 13.0356 592.737 13.0973 592.638C13.1589 592.538 13.2577 592.467 13.3718 592.44C18.0231 591.143 22.9797 591.495 27.4013 593.436C27.6556 593.552 27.4634 593.948 27.2035 593.87C22.7931 592.461 18.0857 592.26 13.571 593.287L13.5743 593.3ZM19.1193 614.335C18.8177 614.516 18.5923 614.057 18.8613 613.862C20.0032 613.068 21.3525 612.626 22.7427 612.589C22.7872 612.595 22.8283 612.616 22.8595 612.648C22.8907 612.68 22.9101 612.722 22.9147 612.767C22.9193 612.811 22.9087 612.856 22.8847 612.894C22.8607 612.932 22.8247 612.96 22.7824 612.975C21.4806 613.171 20.2335 613.634 19.1193 614.335ZM18.5084 611.741C18.3925 611.768 18.2705 611.748 18.1692 611.685C18.068 611.623 17.9957 611.522 17.9684 611.407C17.9412 611.291 17.961 611.169 18.0237 611.067C18.0864 610.966 18.1867 610.894 18.3026 610.867C20.9399 610.218 23.6548 609.941 26.3686 610.044C27.7942 610.097 30.7518 610.001 31.8909 611.014C31.9098 611.033 31.9247 611.056 31.9347 611.08C31.9446 611.105 31.9495 611.132 31.9489 611.159C31.9484 611.185 31.9425 611.212 31.9316 611.236C31.9206 611.261 31.9049 611.283 31.8853 611.301L31.8098 611.385C31.782 611.414 31.7461 611.435 31.7066 611.444C31.6671 611.453 31.6258 611.451 31.5878 611.437C31.5671 611.414 31.5428 611.395 31.5159 611.381C31.3996 611.291 31.4408 611.061 31.6065 611.081C27.223 610.549 22.7806 610.775 18.4737 611.749L18.5084 611.741ZM17.6205 605.667C17.5138 605.692 17.4014 605.674 17.3082 605.616C17.215 605.559 17.1485 605.466 17.1234 605.36C17.0983 605.253 17.1166 605.14 17.1743 605.047C17.232 604.954 17.3243 604.888 17.4311 604.862C21.9224 603.443 26.7614 603.581 31.1647 605.254C31.2192 605.271 31.2647 605.309 31.2911 605.36C31.3174 605.411 31.3226 605.47 31.3053 605.525C31.288 605.579 31.2498 605.625 31.199 605.651C31.1483 605.677 31.0891 605.683 31.0345 605.665C26.6274 604.496 21.9912 604.5 17.5858 605.675L17.6205 605.667ZM20.9007 614.158C20.5954 614.23 20.4015 613.748 20.697 613.635C21.9481 613.155 23.2512 612.823 24.5797 612.647C24.8572 612.582 24.9789 613.037 24.6842 613.091C23.3866 613.354 22.1104 613.714 20.866 614.166L20.9007 614.158Z" fill="#F5F5F5"/>
<path d="M18.7634 622.217L18.3906 624.18C23.9208 620 30.6005 617.617 37.5278 617.354C34.6293 617.047 30.5168 618.023 28.6995 618.421C25.3347 619.185 22.1057 620.456 19.1234 622.191C19.0686 622.221 19.0082 622.238 18.9462 622.243C18.8842 622.247 18.8219 622.239 18.7634 622.217Z" fill="#F5F5F5"/>
<path d="M18.2017 616.69C18.4149 618.031 18.5898 620.391 19.7297 620.723C20.2288 620.884 22.5982 619.316 23.0708 619.146C25.2056 618.286 27.4242 617.651 29.6907 617.251C31.8765 616.788 34.101 616.532 36.3347 616.485C30.391 614.849 24.1069 614.92 18.2017 616.69Z" fill="#F5F5F5"/>
<path d="M11.8098 588.107C11.6994 588.133 11.6039 588.202 11.5442 588.298C11.4845 588.395 11.4656 588.511 11.4916 588.621C11.5176 588.732 11.5863 588.827 11.6828 588.887C11.7792 588.947 11.8954 588.966 12.0058 588.94C16.7925 587.967 23.0057 587.361 27.4826 589.799C27.5119 589.818 27.5447 589.831 27.5789 589.837C27.6132 589.842 27.6482 589.842 27.6821 589.834C27.716 589.826 27.7481 589.812 27.7765 589.792C27.8049 589.772 27.8291 589.747 27.8476 589.717C27.8662 589.688 27.8788 589.655 27.8847 589.621C27.8906 589.587 27.8897 589.551 27.8821 589.518C27.8745 589.484 27.8602 589.452 27.8402 589.423C27.8202 589.395 27.7947 589.371 27.7654 589.352C23.4929 586.506 16.5557 586.961 11.8098 588.107Z" fill="#222221"/>
<path d="M14.7512 599.855C14.1954 600.045 14.3975 600.934 14.9635 600.757C19.3787 599.334 24.105 599.18 28.6032 600.314C28.665 600.333 28.7321 600.327 28.7896 600.297C28.847 600.267 28.8902 600.216 28.9097 600.154C28.9291 600.092 28.9231 600.025 28.8931 599.968C28.8631 599.91 28.8115 599.867 28.7496 599.847C24.2113 598.3 19.2878 598.303 14.7512 599.855Z" fill="#222221"/>
<path d="M13.3718 592.44C13.2577 592.467 13.1589 592.538 13.0973 592.638C13.0356 592.737 13.016 592.858 13.0429 592.972C13.0697 593.086 13.1408 593.184 13.2405 593.246C13.3401 593.308 13.4602 593.327 13.5743 593.301C18.0867 592.27 22.7929 592.466 27.2035 593.87C27.4634 593.948 27.6556 593.552 27.4013 593.436C22.9797 591.495 18.0231 591.143 13.3718 592.44Z" fill="#222221"/>
<path d="M18.8613 613.862C18.5924 614.057 18.8177 614.516 19.1193 614.336C20.2335 613.635 21.4807 613.171 22.7824 612.975C22.8247 612.96 22.8607 612.932 22.8847 612.894C22.9088 612.856 22.9193 612.811 22.9148 612.767C22.9102 612.722 22.8907 612.68 22.8595 612.648C22.8283 612.616 22.7872 612.595 22.7428 612.589C21.3525 612.626 20.0033 613.068 18.8613 613.862Z" fill="#222221"/>
<path d="M18.268 610.875C18.152 610.902 18.0517 610.974 17.989 611.075C17.9264 611.177 17.9065 611.299 17.9338 611.415C17.9611 611.531 18.0333 611.631 18.1345 611.694C18.2358 611.756 18.3578 611.776 18.4737 611.749C22.7778 610.768 27.2185 610.535 31.6016 611.06C31.429 611.042 31.3947 611.27 31.511 611.36C31.5379 611.374 31.5622 611.393 31.5829 611.416C31.6209 611.43 31.6623 611.433 31.7017 611.423C31.7412 611.414 31.7771 611.393 31.8049 611.364L31.8804 611.28C31.9 611.262 31.9157 611.24 31.9267 611.215C31.9376 611.191 31.9435 611.165 31.9441 611.138C31.9446 611.111 31.9397 611.084 31.9298 611.06C31.9198 611.035 31.9049 611.012 31.8861 610.993C30.74 609.982 27.7893 610.076 26.3637 610.023C23.6386 609.927 20.9134 610.214 18.268 610.875Z" fill="#222221"/>
<path d="M17.3963 604.871C17.2896 604.896 17.1973 604.962 17.1396 605.055C17.0819 605.149 17.0636 605.261 17.0887 605.368C17.1138 605.474 17.1803 605.567 17.2735 605.624C17.3668 605.682 17.4791 605.7 17.5858 605.675C21.9901 604.498 26.6257 604.492 31.0329 605.658C31.0874 605.676 31.1466 605.67 31.1974 605.644C31.2482 605.618 31.2864 605.572 31.3037 605.518C31.3209 605.463 31.3158 605.404 31.2894 605.353C31.2631 605.302 31.2176 605.264 31.163 605.247C26.7482 603.571 21.8962 603.439 17.3963 604.871Z" fill="#222221"/>
<path d="M20.6623 613.643C20.3668 613.756 20.5689 614.272 20.866 614.166C22.0993 613.718 23.3639 613.362 24.6495 613.099C24.9409 613.031 24.829 612.618 24.545 612.655C23.2166 612.831 21.9134 613.163 20.6623 613.643Z" fill="#222221"/>
<path d="M29.966 586.85C29.9204 586.926 29.858 586.991 29.7836 587.039C33.4125 596.824 37.4788 606.601 40.4926 616.604C45.0499 611.08 52.2361 607.982 59.158 606.623C59.1806 606.568 59.2231 606.524 59.277 606.499C59.3309 606.474 59.3922 606.471 59.4486 606.489L59.5882 606.522C59.8005 606.403 60.0202 606.297 60.246 606.206C56.3663 597.564 53.3277 588.482 49.9696 579.629C49.5626 578.553 49.2172 577.397 48.7302 576.355C48.5685 575.917 48.3999 575.481 48.2301 575.008C47.6525 573.343 46.7892 572.889 45.64 573.648C43.7198 573.859 41.3105 575.568 39.7422 576.589C35.7365 579.21 32.3907 582.722 29.966 586.85ZM36.9441 598.109C36.558 598.397 36.0462 597.903 36.4192 597.559C40.5636 593.764 46.0371 591.758 51.5323 591.182C51.8266 591.157 51.945 591.597 51.6401 591.64C45.9951 592.419 41.4008 594.739 36.9441 598.109ZM35.8257 589.812C35.7461 589.886 35.6402 589.926 35.5315 589.922C35.4228 589.918 35.3201 589.871 35.246 589.791C35.1719 589.712 35.1325 589.606 35.1364 589.497C35.1403 589.388 35.1873 589.286 35.2669 589.212C39 585.818 43.6506 583.6 48.6374 582.835C48.9219 582.768 49.035 583.217 48.7419 583.279C43.948 584.335 39.4982 586.584 35.8049 589.817L35.8257 589.812ZM39.5359 604.36C39.2131 604.575 38.8502 604.06 39.1355 603.81C42.8718 600.521 47.9111 598.661 52.7888 597.981C53.1218 597.903 53.2647 598.448 52.9146 598.516C47.8222 599.465 43.767 601.555 39.5151 604.365L39.5359 604.36ZM41.2976 610.381C40.9054 610.737 40.3311 610.133 40.7319 609.782C44.9791 606.051 49.8812 603.235 55.6503 603.107C55.9478 603.096 55.9193 603.534 55.632 603.558C50.0371 603.96 45.4216 606.687 41.2976 610.381ZM40.4256 578.683C40.1481 578.873 39.8036 578.405 40.0779 578.201C41.2604 577.312 42.5859 576.631 43.9972 576.188C44.0515 576.173 44.1094 576.179 44.1597 576.204C44.21 576.229 44.2492 576.272 44.2698 576.324C44.2903 576.377 44.2907 576.435 44.2709 576.488C44.2511 576.541 44.2125 576.584 44.1625 576.61C42.8505 577.174 41.5986 577.869 40.4256 578.683ZM40.1659 577.58C39.8627 577.754 39.6117 577.279 39.9063 577.099C41.4495 576.185 43.0833 575.432 44.7815 574.853C45.0104 574.8 45.1525 575.154 44.9301 575.236C43.2865 575.899 41.6942 576.683 40.1659 577.58Z" fill="#F5F5F5"/>
<path d="M36.3983 597.564C36.0254 597.908 36.5372 598.402 36.9233 598.114C41.4008 594.738 45.9951 592.419 51.6193 591.645C51.9176 591.574 51.8057 591.161 51.5115 591.187C45.9885 591.769 40.5428 593.769 36.3983 597.564Z" fill="#222221"/>
<path d="M35.2478 589.224C35.1681 589.298 35.1212 589.4 35.1172 589.509C35.1133 589.618 35.1527 589.724 35.2268 589.803C35.3009 589.883 35.4036 589.93 35.5123 589.934C35.6211 589.938 35.7269 589.898 35.8065 589.824C39.5022 586.595 43.9531 584.351 48.7469 583.3C49.0382 583.231 48.9317 582.81 48.6423 582.856C43.648 583.614 38.9885 585.829 35.2478 589.224Z" fill="#222221"/>
<path d="M39.1147 603.815C38.8294 604.065 39.1923 604.58 39.5151 604.365C43.767 601.555 47.8255 599.479 52.8938 598.521C53.2407 598.439 53.1092 597.943 52.7681 597.986C47.8903 598.666 42.8511 600.526 39.1147 603.815Z" fill="#222221"/>
<path d="M40.7388 609.781C40.338 610.131 40.9123 610.736 41.3045 610.38C45.4216 606.687 50.0375 603.93 55.6389 603.556C55.9262 603.533 55.9547 603.094 55.6572 603.105C49.8689 603.245 44.9861 606.05 40.7388 609.781Z" fill="#222221"/>
<path d="M40.0779 578.201C39.8036 578.405 40.1482 578.873 40.4256 578.683C41.588 577.874 42.8282 577.182 44.1279 576.618C44.1778 576.592 44.2164 576.549 44.2362 576.496C44.256 576.443 44.2556 576.385 44.2351 576.333C44.2146 576.28 44.1754 576.237 44.1251 576.212C44.0747 576.187 44.0168 576.181 43.9625 576.196C42.5639 576.641 41.2505 577.319 40.0779 578.201Z" fill="#222221"/>
<path d="M39.8855 577.104C39.5909 577.284 39.842 577.759 40.1452 577.585C41.6734 576.688 43.2657 575.904 44.9093 575.241C45.1382 575.187 44.9847 574.784 44.7607 574.858C43.0625 575.437 41.4287 576.189 39.8855 577.104Z" fill="#222221"/>
<path d="M59.6046 607.089C53.5989 608.825 48.4352 611.183 43.8133 615.003C49.1326 611.396 55.1988 609.039 61.5579 608.109C60.9386 607.711 60.2849 607.37 59.6046 607.089Z" fill="#F5F5F5"/>
<path d="M61.2777 39.5019C61.3427 39.5731 61.3854 39.6617 61.4006 39.7568C61.4158 39.852 61.4027 39.9495 61.3631 40.0373C61.3234 40.1251 61.2589 40.1994 61.1775 40.2509C61.0961 40.3025 61.0014 40.3291 60.9051 40.3274C56.3463 40.2789 51.8244 39.5049 47.509 38.0345C47.4498 38.0169 47.3952 37.9869 47.3487 37.9463C47.3022 37.9058 47.265 37.8557 47.2396 37.7995C35.586 30.7145 23.4395 24.4664 11.6083 17.6336C10.8516 18.9979 8.83388 18.7801 7.97405 17.6336C7.75479 17.3468 7.58968 17.0224 7.48681 16.6764C7.45178 16.7465 7.39457 16.803 7.32407 16.8372C7.25358 16.8714 7.17376 16.8814 7.09702 16.8655C5.5436 16.5617 4.86147 15.4382 4.67231 14.0396C4.64729 14.1022 4.60688 14.1575 4.55482 14.2004C4.50275 14.2433 4.4407 14.2724 4.37442 14.285C4.30814 14.2976 4.23977 14.2932 4.17561 14.2724C4.11145 14.2515 4.05359 14.2148 4.00737 14.1657C2.79788 12.853 1.02663 12.8301 0.298645 11.0015C-0.274574 9.53404 0.0521624 7.95196 0.648312 6.54758C1.16421 5.34382 1.92659 3.25157 3.45708 3.02228C4.86147 2.81592 6.8448 4.0942 8.04283 4.74194C8.06424 4.75121 8.08317 4.76537 8.09811 4.78329C8.11304 4.80121 8.12356 4.82239 8.12881 4.84512C9.3555 4.08273 10.7599 3.98528 11.6713 5.5731C11.9029 5.48166 12.1503 5.43687 12.3993 5.44127C13.1679 5.4708 13.9107 5.72638 14.5347 6.17604C15.1587 6.62569 15.6362 7.24944 15.9074 7.96917C15.932 8.0243 15.9399 8.08541 15.9301 8.14497C15.9204 8.20454 15.8935 8.25996 15.8527 8.30442C15.8119 8.34889 15.759 8.38045 15.7004 8.39523C15.6419 8.41001 15.5804 8.40736 15.5233 8.3876C15.4641 8.3574 15.416 8.30925 15.3858 8.25004C14.6979 6.94883 13.3508 5.85971 11.8949 6.53038C10.6452 7.1036 10.1408 8.82326 9.48161 9.96969C9.30391 10.285 8.9084 9.9697 9.02304 9.68882C9.59626 8.49653 10.1236 6.43294 11.3732 5.67629C8.83388 3.26304 6.67857 7.11506 6.06523 9.24743C5.45189 11.3798 4.39143 15.249 7.28618 16.1261C7.31635 16.1359 7.34522 16.1494 7.37217 16.1662C7.07409 14.5325 7.94539 12.6753 8.38677 11.1735C8.44409 10.9728 8.78229 11.0187 8.75363 11.2365C8.57593 12.4632 8.0543 13.6268 7.97405 14.865C7.91425 15.2762 7.94044 15.6954 8.05095 16.096C8.16145 16.4965 8.35387 16.8698 8.61605 17.1923C8.7585 17.3672 8.93812 17.5082 9.14188 17.6051C9.34564 17.7019 9.56841 17.7522 9.79401 17.7522C10.0196 17.7522 10.2424 17.7019 10.4462 17.6051C10.6499 17.5082 10.8295 17.3672 10.972 17.1923C10.8 17.0891 10.6395 16.9974 10.4675 16.8999C10.4155 16.8693 10.3749 16.8224 10.3521 16.7665C10.3293 16.7105 10.3256 16.6486 10.3414 16.5904C10.2933 16.5263 10.2708 16.4466 10.2784 16.3668C10.4943 13.1 11.9258 10.0324 14.2909 7.76854C14.3416 7.72303 14.4046 7.69359 14.472 7.68394C14.5394 7.67429 14.6082 7.68487 14.6696 7.71434C14.731 7.74381 14.7822 7.79083 14.8169 7.84946C14.8515 7.90809 14.868 7.9757 14.8641 8.04369C15.0762 8.1526 15.2883 8.26151 15.5061 8.38188C27.6412 14.6873 39.3349 22.0016 51.1489 28.8802C51.2448 28.9337 51.3166 29.0219 51.3495 29.1267C51.391 29.1689 51.4196 29.2221 51.4318 29.28C51.4439 29.3379 51.4393 29.3981 51.4183 29.4534C53.2412 30.5998 54.6627 32.4284 56.1474 33.9704C57.8613 35.8849 59.5695 37.6906 61.2777 39.5019ZM57.1562 39.1637C58.0161 39.2382 58.8759 39.2956 59.7644 39.3242C58.9905 38.5217 58.2224 37.702 57.4715 36.8995C57.2517 37.1948 57.1089 37.5401 57.0559 37.9044C57.0028 38.2686 57.0413 38.6403 57.1677 38.986C57.1781 39.0453 57.1741 39.1063 57.1562 39.1637ZM56.3881 39.0835C56.2408 38.628 56.2223 38.1407 56.3346 37.6754C56.4469 37.2101 56.6856 36.7848 57.0244 36.4467L55.4137 34.727C53.9577 33.1793 52.2266 31.666 51.1661 29.8031C50.9988 29.9556 50.8654 30.1416 50.7746 30.3489C50.6837 30.5563 50.6374 30.7804 50.6387 31.0068C50.6582 31.4735 50.8384 31.919 51.1489 32.2679C51.175 32.3077 51.1912 32.3533 51.1961 32.4007C51.2011 32.4481 51.1945 32.4959 51.1771 32.5403C51.1597 32.5846 51.132 32.6242 51.0961 32.6556C51.0603 32.687 51.0175 32.7093 50.9712 32.7208C50.9559 32.7508 50.9339 32.777 50.907 32.7974C50.8801 32.8178 50.849 32.8318 50.8159 32.8384C50.7828 32.845 50.7486 32.8441 50.716 32.8356C50.6833 32.8271 50.653 32.8114 50.6273 32.7895C50.5112 32.7123 50.3793 32.662 50.2413 32.6423C50.1033 32.6227 49.9626 32.6341 49.8296 32.6759C49.6966 32.7177 49.5746 32.7887 49.4726 32.8837C49.3706 32.9788 49.2911 33.0955 49.2401 33.2252C48.9019 34.0277 49.6012 34.7041 50.077 35.2429C50.1185 35.2851 50.147 35.3383 50.1592 35.3962C50.1714 35.4541 50.1667 35.5143 50.1458 35.5697C50.3579 35.6958 50.3177 36.0684 50.0311 36.0397C49.8638 36.0199 49.6941 36.0386 49.535 36.0944C49.376 36.1502 49.2318 36.2415 49.1135 36.3615C48.9951 36.4815 48.9058 36.627 48.8522 36.7868C48.7987 36.9466 48.7823 37.1165 48.8044 37.2836C48.8159 37.3442 48.8159 37.4064 48.8044 37.467C51.2759 38.2429 53.8151 38.7842 56.3881 39.0835ZM47.7898 37.0027C47.8821 37.0564 47.9515 37.142 47.9847 37.2434C47.9796 36.8587 48.1 36.4828 48.3275 36.1726C48.555 35.8623 48.8774 35.6346 49.2458 35.5238C48.5121 34.8474 48.0994 33.6264 48.6726 32.7609C48.8306 32.5331 49.0414 32.3469 49.2869 32.2181C49.5325 32.0894 49.8055 32.0219 50.0827 32.0214C49.9365 31.6287 49.8971 31.2042 49.9686 30.7913C50.0401 30.3784 50.2199 29.9919 50.4897 29.6712C38.5152 22.7238 26.2253 16.0859 14.6119 8.5481C13.6864 9.70674 12.9014 10.9709 12.2732 12.3142C11.7405 13.6974 11.345 15.1297 11.0924 16.5904C23.7777 22.3799 35.907 29.7744 47.807 37.0027L47.7898 37.0027ZM4.58632 13.581L4.58632 13.6268C4.43155 11.483 5.27992 8.81753 5.87033 7.41314C6.29824 6.48447 6.95506 5.67971 7.77915 5.0744C6.33464 4.72474 4.91306 3.89357 3.5144 4.34642C2.11575 4.79926 1.49094 6.34123 1.06102 7.75708C0.447682 9.74042 1.00943 11.2996 2.78068 12.3428C3.44901 12.6582 4.06402 13.0759 4.60352 13.581L4.58632 13.581Z" fill="#222221"/>
<path d="M59.7644 39.3241C58.8874 39.2955 58.0447 39.2381 57.1563 39.1636C57.1704 39.1052 57.1704 39.0443 57.1563 38.9859C57.0298 38.6402 56.9914 38.2685 57.0444 37.9043C57.0975 37.54 57.2403 37.1947 57.4601 36.8994C58.2224 37.7019 58.9906 38.5216 59.7644 39.3241Z" fill="#222221"/>
<path d="M57.0244 36.4467C56.6856 36.7849 56.4469 37.2101 56.3346 37.6755C56.2223 38.1408 56.2409 38.6281 56.3881 39.0835C53.816 38.7936 51.2769 38.2619 48.8045 37.4957C48.8159 37.4351 48.8159 37.3729 48.8045 37.3123C48.7823 37.1452 48.7987 36.9753 48.8522 36.8155C48.9058 36.6557 48.9951 36.5103 49.1135 36.3903C49.2318 36.2703 49.376 36.1789 49.5351 36.1231C49.6941 36.0673 49.8638 36.0486 50.0311 36.0684C50.3178 36.0971 50.3579 35.7245 50.1458 35.5984C50.1668 35.543 50.1714 35.4828 50.1592 35.4249C50.147 35.367 50.1185 35.3138 50.077 35.2716C49.6012 34.7328 48.9019 34.0564 49.2401 33.2539C49.2912 33.1242 49.3706 33.0075 49.4726 32.9125C49.5746 32.8174 49.6966 32.7464 49.8296 32.7046C49.9626 32.6629 50.1033 32.6514 50.2413 32.671C50.3794 32.6907 50.5112 32.741 50.6273 32.8183C50.653 32.8401 50.6833 32.8559 50.716 32.8643C50.7487 32.8728 50.7828 32.8737 50.8159 32.8671C50.849 32.8605 50.8802 32.8465 50.9071 32.8261C50.934 32.8057 50.9559 32.7795 50.9712 32.7495C51.0175 32.738 51.0603 32.7157 51.0961 32.6843C51.132 32.6529 51.1598 32.6133 51.1772 32.569C51.1946 32.5246 51.2011 32.4768 51.1962 32.4294C51.1913 32.382 51.1751 32.3365 51.1489 32.2966C50.8384 31.9478 50.6582 31.5022 50.6388 31.0356C50.6375 30.8092 50.6837 30.585 50.7746 30.3777C50.8654 30.1703 50.9988 29.9843 51.1661 29.8318C52.2266 31.6947 53.9577 33.208 55.4137 34.7557L57.0244 36.4467Z" fill="#E8CFBA"/>
<path d="M48.0019 37.2433C47.9686 37.1419 47.8993 37.0562 47.807 37.0026C35.907 29.7743 23.7777 22.3798 11.0809 16.596C11.3335 15.1353 11.729 13.7031 12.2617 12.3198C12.8899 10.9765 13.6749 9.71235 14.6004 8.55371C26.2139 16.0858 38.5037 22.7237 50.4897 29.6711C50.2239 29.9917 50.0473 30.3767 49.9779 30.7874C49.9085 31.198 49.9486 31.6197 50.0942 32.0098C49.8169 32.0103 49.5439 32.0778 49.2984 32.2065C49.0528 32.3353 48.8421 32.5215 48.684 32.7493C48.1108 33.6148 48.5407 34.8358 49.2573 35.5122C48.888 35.6245 48.5655 35.8545 48.3389 36.167C48.1123 36.4794 47.9939 36.8574 48.0019 37.2433ZM42.0347 32.1703C42.413 32.3882 42.7742 31.8264 42.4818 31.5971C42.6595 31.7118 42.8372 31.8207 43.0206 31.9238C43.102 31.9748 43.2002 31.9913 43.2937 31.9698C43.3873 31.9483 43.4684 31.8905 43.5193 31.8092C43.5703 31.7279 43.5868 31.6296 43.5653 31.5361C43.5438 31.4426 43.486 31.3614 43.4047 31.3105C42.6137 30.8061 41.7366 30.3934 40.8997 29.9577C40.8488 29.9265 40.7876 29.9169 40.7295 29.9309C40.6715 29.9448 40.6214 29.9813 40.5902 30.0322C40.559 30.0832 40.5494 30.1444 40.5633 30.2024C40.5773 30.2605 40.6138 30.3106 40.6647 30.3418C41.2379 30.743 41.8112 31.1729 42.3844 31.5513C41.1806 30.978 40.0112 30.359 38.7846 29.8603C38.5782 29.7743 38.4464 30.0838 38.6241 30.2042C39.7361 30.9207 40.9055 31.5111 42.0347 32.1703ZM19.6047 14.2802C19.9772 14.4464 20.1779 13.8732 19.8913 13.6554C18.9349 13.0534 17.9302 12.5319 16.8876 12.0962C16.6296 11.9816 16.4061 12.3083 16.6526 12.4688C17.5831 13.1557 18.5708 13.7617 19.6047 14.2802ZM19.3352 12.4803C19.6448 12.5204 19.811 12.0217 19.5187 11.907C18.8939 11.6204 18.2175 11.4714 17.5927 11.1561C16.9955 10.8324 16.4209 10.4685 15.873 10.067C15.6896 9.94091 15.4775 10.2103 15.6265 10.3708C16.5093 11.3281 17.9824 12.3312 19.3352 12.4803Z" fill="#65B1D2"/>
<path d="M42.4646 31.6029C42.757 31.8265 42.3958 32.3882 42.0175 32.1761C40.8711 31.5169 39.7246 30.9265 38.6298 30.2157C38.4521 30.0954 38.5839 29.7858 38.7903 29.8718C40.017 30.3705 41.1864 31.0183 42.3901 31.5628L42.4646 31.6029Z" fill="#222221"/>
<path d="M43.4047 31.3163C43.486 31.3672 43.5438 31.4484 43.5653 31.5419C43.5868 31.6354 43.5702 31.7337 43.5193 31.815C43.4684 31.8964 43.3872 31.9541 43.2937 31.9756C43.2002 31.9971 43.1019 31.9806 43.0206 31.9297C42.8372 31.8265 42.6595 31.7176 42.4818 31.6029L42.4073 31.5571C41.834 31.1787 41.2608 30.7488 40.6876 30.3476C40.6367 30.3164 40.6002 30.2663 40.5862 30.2082C40.5723 30.1502 40.5819 30.089 40.6131 30.038C40.6442 29.9871 40.6944 29.9506 40.7524 29.9367C40.8105 29.9227 40.8717 29.9324 40.9226 29.9635C41.7366 30.3992 42.6136 30.8119 43.4047 31.3163Z" fill="#222221"/>
<path d="M10.9834 17.2782C10.841 17.4531 10.6614 17.5942 10.4576 17.691C10.2538 17.7879 10.0311 17.8381 9.80547 17.8381C9.57986 17.8381 9.35709 17.7879 9.15333 17.691C8.94957 17.5942 8.76995 17.4531 8.6275 17.2782C8.36533 16.9558 8.1729 16.5825 8.06239 16.1819C7.95189 15.7813 7.9257 15.3622 7.9855 14.9509C8.06575 13.7128 8.58738 12.5491 8.76508 11.3225C8.79374 11.1046 8.45554 11.0588 8.39822 11.2594C7.93964 12.7612 7.08555 14.6185 7.38362 16.2521C7.35667 16.2354 7.3278 16.2219 7.29764 16.212C4.40288 15.3121 5.46906 11.4027 6.07668 9.33339C6.68429 7.26407 8.84533 3.34898 11.3847 5.76223C10.1351 6.50741 9.59624 8.571 9.03449 9.77476C8.89118 10.0786 9.31537 10.348 9.49307 10.0556C10.1523 8.88053 10.6395 7.18954 11.9063 6.61632C13.3623 5.92272 14.7094 7.01184 15.3972 8.33598C15.4274 8.39519 15.4756 8.44335 15.5348 8.47356L15.4889 8.571C15.2711 8.45062 15.059 8.34171 14.8469 8.2328C14.8507 8.16481 14.8343 8.09722 14.7997 8.03859C14.765 7.97996 14.7138 7.93292 14.6524 7.90345C14.591 7.87399 14.5222 7.8634 14.4548 7.87305C14.3874 7.8827 14.3244 7.91214 14.2737 7.95765C11.9086 10.2215 10.4771 13.2891 10.2612 16.5559C10.2536 16.6357 10.276 16.7155 10.3242 16.7795C10.3084 16.8378 10.3121 16.8997 10.3349 16.9556C10.3577 17.0115 10.3983 17.0584 10.4503 17.089C10.651 17.0833 10.8115 17.175 10.9834 17.2782Z" fill="#D8D8D8"/>
<path d="M19.8913 13.6785C20.1951 13.8963 19.9773 14.4695 19.6047 14.3033C18.5759 13.7766 17.5941 13.1629 16.6698 12.469C16.4233 12.3085 16.6698 11.9817 16.9048 12.0964C17.9424 12.5403 18.9413 13.0695 19.8913 13.6785Z" fill="#222221"/>
<path d="M19.5359 11.8901C19.8282 12.0219 19.662 12.5206 19.3525 12.4633C17.9997 12.3142 16.5265 11.3168 15.6151 10.3366C15.466 10.1761 15.6781 9.90673 15.8615 10.0328C16.4095 10.4343 16.984 10.7982 17.5812 11.122C18.2175 11.4544 18.8939 11.6035 19.5359 11.8901Z" fill="#222221"/>
<path d="M4.63219 13.6268L4.63219 13.581C4.09806 13.086 3.491 12.6761 2.83228 12.3657C1.07823 11.2996 0.539404 9.7404 1.11262 7.77999C1.54254 6.36414 2.14442 4.81646 3.566 4.36935C4.98758 3.92224 6.38624 4.74766 7.83075 5.09733C7.00665 5.70264 6.34984 6.50738 5.92193 7.43605C5.32005 8.81751 4.47169 11.483 4.63219 13.6268ZM3.245 11.5976C3.4055 11.8498 3.87554 11.7237 3.7609 11.4027C3.40552 10.554 3.29626 9.6223 3.44562 8.71434C3.45656 8.66163 3.44759 8.60674 3.42045 8.56026C3.3933 8.51377 3.3499 8.47897 3.29862 8.46259C3.24735 8.44621 3.19182 8.44941 3.14275 8.47155C3.09368 8.49369 3.05455 8.5332 3.03291 8.58249C2.85119 9.07089 2.7756 9.5924 2.81118 10.1123C2.84677 10.6322 2.9927 11.1385 3.23926 11.5976L3.245 11.5976ZM1.99538 10.6002C2.03381 10.6525 2.0898 10.6891 2.15307 10.7034C2.21635 10.7177 2.28265 10.7087 2.33981 10.678C2.39696 10.6473 2.44113 10.5971 2.46421 10.5365C2.48728 10.4758 2.48772 10.4089 2.46542 10.348C2.26955 9.92516 2.16429 9.46602 2.1564 9.00007C2.1485 8.53413 2.23814 8.07167 2.41956 7.64242C2.48835 7.47046 2.21894 7.36154 2.12149 7.51058C1.82945 7.96837 1.66346 8.49516 1.64031 9.03768C1.61716 9.5802 1.73767 10.1192 1.98965 10.6002L1.99538 10.6002Z" fill="#CFA198"/>
<path d="M3.7552 11.3855C3.86984 11.7065 3.3998 11.8326 3.2393 11.5804C2.9918 11.1218 2.84487 10.6156 2.8083 10.0957C2.77173 9.57582 2.84636 9.05408 3.02721 8.56528C3.04885 8.516 3.08798 8.47648 3.13705 8.45434C3.18612 8.4322 3.24165 8.429 3.29293 8.44539C3.34421 8.46177 3.3876 8.49656 3.41475 8.54305C3.44189 8.58954 3.45086 8.64442 3.43992 8.69713C3.29056 9.60509 3.39982 10.5368 3.7552 11.3855Z" fill="#222221"/>
<path d="M2.45966 10.3479C2.48195 10.4088 2.48153 10.4757 2.45845 10.5363C2.43538 10.597 2.3912 10.6472 2.33404 10.6779C2.27689 10.7086 2.21058 10.7176 2.14731 10.7033C2.08404 10.689 2.02805 10.6524 1.98962 10.6001C1.73679 10.1196 1.61531 9.58086 1.63745 9.03834C1.65959 8.49583 1.82458 7.96877 2.11573 7.51046C2.21317 7.36143 2.48259 7.47034 2.4138 7.64231C2.23238 8.07156 2.14274 8.53401 2.15064 8.99996C2.15853 9.46591 2.26379 9.92505 2.45966 10.3479Z" fill="#222221"/>
</svg>
