<svg width="116" height="788" viewBox="0 0 116 788" fill="none" xmlns="http://www.w3.org/2000/svg">
<path opacity="0.5" d="M91.3092 2.43134C62.4828 22.5815 38.2912 48.6545 20.3525 78.9067C2.97348 108.264 -7.23737 148.658 14.883 174.632C34.5545 198.044 69.5158 198.607 100.074 199.728C142.872 201.367 188.083 209.1 220.097 237.575C252.111 266.049 263.333 320.935 233.488 351.907C207.593 378.694 165.275 376.792 127.94 375.679C90.6043 374.567 46.607 379.275 28.2746 411.537C18.5568 428.713 18.8095 450.125 24.3567 469.074C37.632 514.563 88.4835 550.39 133.092 534.419C146.925 529.448 160.022 518.472 161.757 503.807C164.658 479.35 134.595 462.899 110.077 465.675C79.4758 469.198 52.7384 490.946 37.9522 518.088C23.1661 545.229 19.003 577.033 19.9461 607.905C22.1423 672.558 45.1799 734.77 85.623 785.26" stroke="white" stroke-width="4.63276" stroke-linecap="round" stroke-linejoin="round" stroke-dasharray="4.59 12.28"/>
<path d="M76.6535 414.987C73.152 415.332 71.0041 413.749 69.328 410.322C63.778 398.936 59.5787 386.893 55.2215 375.022C56.5428 376.249 58.5197 376.154 60.5258 375.604L60.5546 375.71C60.5261 375.714 60.4988 375.724 60.4744 375.739C60.45 375.755 60.4291 375.775 60.4131 375.8C60.3971 375.824 60.3863 375.851 60.3815 375.88C60.3766 375.909 60.3779 375.938 60.3851 375.966C63.195 389.829 69.1297 403.154 76.6535 414.987Z" fill="#6AA742"/>
<path d="M89.6861 363.045C95.2153 376.022 99.6295 389.438 104.613 402.67C99.3875 406.342 93.7545 409.372 87.8341 411.694C84.5954 413.014 81.2553 414.056 77.8496 414.807L77.7669 414.82C70.1944 402.603 64.9612 389.706 60.8791 375.894C60.8602 375.836 60.8215 375.787 60.7698 375.756C60.7181 375.724 60.6569 375.713 60.5971 375.723L60.5684 375.618C62.9644 374.955 65.4339 373.629 67.0448 372.992C74.6787 369.933 82.2258 366.618 89.6861 363.045ZM100.338 401.454C100.472 401.382 100.574 401.26 100.621 401.114C100.669 400.968 100.658 400.809 100.591 400.673L97.4668 394.18C97.3942 394.044 97.2727 393.942 97.1274 393.895C96.9821 393.848 96.8239 393.859 96.6855 393.927C90.9956 396.959 84.7849 401.309 78.4512 402.719C78.3607 402.736 78.2757 402.776 78.2042 402.835C78.1328 402.895 78.0774 402.972 78.0431 403.059C78.0431 403.059 77.9957 403.011 77.9957 403.011C77.77 402.714 77.3692 403.08 77.5641 403.375C78.8191 405.315 79.8196 407.414 80.5407 409.621C80.6008 409.739 80.7045 409.827 80.8295 409.868C80.9544 409.908 81.0904 409.897 81.2084 409.837C87.6373 407.163 93.9804 404.27 100.338 401.454ZM100.929 404.306C101.278 404.1 101.021 403.537 100.665 403.741C99.6945 404.314 98.7126 404.923 97.778 405.532C97.5113 405.701 97.7019 406.13 97.9782 405.98C98.9721 405.431 99.9636 404.889 100.929 404.306ZM100.193 403.429C100.265 403.393 100.32 403.329 100.347 403.252C100.373 403.175 100.368 403.091 100.334 403.019C100.299 402.946 100.237 402.891 100.161 402.865C100.086 402.839 100.003 402.844 99.9311 402.88C98.4437 403.543 96.9996 404.304 95.6081 405.157C95.3012 405.329 95.5227 405.808 95.8391 405.655C97.3345 405.007 98.7888 404.263 100.193 403.429ZM68.5681 376.673C68.9507 376.51 68.6746 375.981 68.306 376.101C66.8106 376.6 65.3488 377.261 63.8963 377.87C63.6246 377.982 63.8174 378.356 64.0749 378.263C65.575 377.75 67.1061 377.287 68.5681 376.673ZM67.1389 375.004C67.5521 374.818 67.2594 374.244 66.8507 374.391C65.124 375.047 63.4499 375.88 61.7542 376.633C61.4874 376.755 61.6873 377.155 61.9566 377.05C63.6809 376.378 65.4456 375.775 67.1389 375.004Z" fill="#6AA742"/>
<path d="M97.6921 397.289C98.2883 398.089 99.0617 399.554 98.717 400.45C98.1496 401.96 94.536 402.772 93.0505 403.41C90.7786 404.416 88.5083 405.426 86.2396 406.439C85.1511 407.048 84.0103 407.554 82.8317 407.949C81.3003 408.292 81.4753 408.309 80.5604 406.966C79.8712 405.944 79.3168 404.893 78.6607 403.866C82.5677 403.141 85.9829 400.978 89.4535 399.105C91.2454 398.151 93.3117 396.47 95.2495 395.987C96.9841 395.574 96.7871 396.085 97.6921 397.289ZM94.7842 400.527C95.2801 400.304 94.9158 399.539 94.4269 399.764C90.535 401.509 86.4103 402.954 82.6588 404.968C82.4888 405.057 82.5347 405.352 82.7664 405.315C86.8735 404.287 90.9135 402.279 94.7842 400.527Z" fill="#F5F5F5"/>
<path d="M83.106 359.956C83.3733 362.16 85.4236 362.808 87.3723 362.775C82.9493 364.852 78.5144 366.892 74.0295 368.844C71.5324 369.916 69.0281 370.97 66.5166 372.006C63.8098 373.095 58.7749 376.092 55.7493 374.434C55.7173 374.394 55.6756 374.364 55.6284 374.346L55.529 374.314C55.3877 374.223 55.2523 374.124 55.1236 374.015C54.2044 372.807 58.8704 370.561 59.0002 370.476C60.2492 369.817 61.5124 369.187 62.7591 368.56C65.0755 367.416 67.4016 366.339 69.787 365.321C74.1845 363.421 78.6869 361.778 83.106 359.956ZM83.5511 363.017C83.6485 362.97 83.724 362.886 83.7609 362.783C83.7978 362.68 83.7932 362.567 83.748 362.469C83.7029 362.371 83.6209 362.295 83.5201 362.259C83.4193 362.222 83.3079 362.228 83.2105 362.275C75.6204 365.699 68.0519 369.227 60.4952 372.742C60.2615 372.858 60.4376 373.21 60.6786 373.121C68.4732 370.174 76.1087 366.801 83.5511 363.017ZM81.7522 362.562C82.1561 362.381 81.8631 361.759 81.4664 361.942C73.8106 365.521 66.0712 368.873 58.3891 372.363C58.2143 372.443 58.3405 372.683 58.5034 372.616C66.362 369.55 74.082 366.088 81.7522 362.562Z" fill="#F5F5F5"/>
<path d="M105.595 402.157C106.036 402.204 106.383 402.779 105.937 403.067C99.7372 407.499 92.9683 411.039 85.8254 413.585C81.5896 415.058 74.9069 418.225 71.0191 414.697C69.1049 412.975 68.1362 410.368 67.1353 408.054C65.4816 404.242 63.8443 400.412 62.2236 396.563C59.2509 389.36 56.278 382.06 54.2856 374.495C54.0418 374.268 53.8706 373.972 53.7937 373.644C53.7169 373.316 53.7378 372.971 53.8539 372.653C54.4781 370.41 58.6459 369.122 60.3246 368.275C68.0149 364.372 76.1455 360.611 84.6062 358.715C84.6694 358.706 84.7336 358.72 84.7872 358.754C84.8409 358.789 84.8806 358.842 84.8992 358.903C84.9179 358.965 84.9143 359.032 84.8891 359.091C84.8639 359.151 84.8187 359.2 84.7616 359.229C84.5019 359.353 84.2278 359.448 83.9633 359.562C83.9869 359.607 84.0031 359.655 84.0111 359.705C84.3527 362.213 87.1971 361.983 89.0252 361.96L89.4975 361.737C89.6146 361.685 89.7444 361.671 89.8689 361.697C89.9934 361.723 90.1065 361.788 90.1923 361.882C90.2782 361.977 90.3326 362.096 90.3481 362.225C90.3635 362.353 90.3391 362.483 90.2784 362.597L90.3281 362.614C96.8769 374.962 101.092 388.968 105.595 402.157ZM104.651 402.65C99.6604 389.44 95.2248 376.017 89.724 363.025C82.2873 366.606 74.7284 369.918 67.0472 372.961C65.4363 373.598 62.9668 374.924 60.5708 375.587C58.5575 376.134 56.5853 376.215 55.2664 375.004C59.6236 386.875 63.8159 398.94 69.3729 410.305C71.049 413.732 73.1969 415.314 76.6984 414.969C69.1746 403.136 63.2329 389.834 60.4371 375.951C60.4299 375.923 60.4286 375.894 60.4335 375.865C60.4383 375.836 60.4491 375.809 60.4651 375.785C60.4811 375.76 60.502 375.74 60.5264 375.724C60.5508 375.709 60.5782 375.698 60.6066 375.694C60.6663 375.684 60.7275 375.695 60.7792 375.727C60.8309 375.758 60.8697 375.807 60.8886 375.866C65.0417 389.7 70.2394 402.586 77.8118 414.802L77.8946 414.789C81.3002 414.038 84.6403 412.997 87.8791 411.677C93.7831 409.357 99.4008 406.333 104.613 402.67L104.651 402.65ZM87.4101 362.756C85.4614 362.788 83.4112 362.14 83.1439 359.936C78.7248 361.758 74.2317 363.372 69.8484 365.277C67.4772 366.3 65.1369 367.372 62.8205 368.516C61.5596 369.139 60.2964 369.768 59.0616 370.432C58.9389 370.496 54.2728 372.741 55.185 373.971C55.3137 374.08 55.4491 374.179 55.5904 374.27L55.6899 374.302C55.737 374.32 55.7787 374.35 55.8107 374.39C58.8363 376.048 63.8996 373.061 66.578 371.962C69.0832 370.93 71.5875 369.876 74.0909 368.8C78.5145 366.892 82.9494 364.852 87.3723 362.775L87.4101 362.756Z" fill="#222221"/>
<path d="M100.605 400.677C100.672 400.814 100.683 400.973 100.636 401.119C100.588 401.265 100.487 401.387 100.352 401.458C93.9946 404.275 87.6586 407.17 81.2296 409.82C81.1117 409.88 80.9756 409.891 80.8507 409.851C80.7258 409.81 80.6221 409.722 80.5619 409.603C79.8409 407.397 78.8403 405.298 77.5853 403.358C77.3904 403.063 77.7984 402.7 78.0169 402.994C78.0169 402.994 78.0478 403.044 78.0715 403.068C78.1058 402.981 78.1612 402.904 78.2326 402.845C78.3041 402.785 78.3891 402.745 78.4796 402.728C84.8133 401.319 90.9956 396.959 96.7139 393.936C96.8523 393.868 97.0105 393.857 97.1558 393.904C97.3011 393.951 97.4226 394.053 97.4952 394.189L100.605 400.677ZM98.717 400.45C99.0617 399.554 98.2883 398.089 97.6921 397.289C96.7871 396.085 96.9841 395.574 95.2661 396.008C93.3284 396.492 91.262 398.172 89.4701 399.126C85.9996 400.999 82.5844 403.162 78.6773 403.887C79.3381 404.9 79.8832 405.98 80.5771 406.987C81.4967 408.316 81.3169 408.314 82.8483 407.97C84.0269 407.575 85.1678 407.07 86.2562 406.46C88.5249 405.448 90.7952 404.438 93.0671 403.431C94.5502 402.777 98.1496 401.96 98.717 400.45Z" fill="#222221"/>
<path d="M100.665 403.741C101.021 403.537 101.278 404.1 100.929 404.306C99.9565 404.887 98.9934 405.438 97.9781 405.98C97.7019 406.13 97.5113 405.701 97.778 405.532C98.7339 404.93 99.6945 404.314 100.665 403.741Z" fill="#222221"/>
<path d="M99.9194 402.917C99.9914 402.881 100.074 402.875 100.15 402.901C100.225 402.927 100.287 402.982 100.322 403.055C100.357 403.128 100.361 403.212 100.335 403.288C100.309 403.365 100.253 403.429 100.181 403.465C98.7771 404.3 97.3228 405.043 95.8274 405.691C95.511 405.845 95.2895 405.365 95.5964 405.193C96.9879 404.34 98.432 403.579 99.9194 402.917Z" fill="#222221"/>
<path d="M94.4268 399.764C94.9157 399.539 95.28 400.304 94.7841 400.527C90.9135 402.279 86.8734 404.287 82.7333 405.344C82.53 405.39 82.4557 405.086 82.6257 404.997C86.4102 402.954 90.5443 401.48 94.4268 399.764Z" fill="#222221"/>
<path d="M83.2105 362.275C83.3079 362.228 83.4192 362.222 83.52 362.259C83.6208 362.295 83.7028 362.371 83.748 362.469C83.7932 362.568 83.7978 362.681 83.7609 362.783C83.7239 362.886 83.6485 362.97 83.5511 363.017C76.104 366.8 68.4637 370.172 60.6643 373.116C60.4234 373.206 60.2472 372.853 60.481 372.737C68.0519 369.227 75.6204 365.7 83.2105 362.275Z" fill="#222221"/>
<path d="M81.4663 361.942C81.8631 361.759 82.156 362.381 81.7522 362.562C74.082 366.088 66.3572 369.565 58.5034 372.616C58.3404 372.683 58.2143 372.443 58.389 372.363C66.0712 368.873 73.8105 365.521 81.4663 361.942Z" fill="#222221"/>
<path d="M68.3059 376.101C68.6745 375.981 68.9577 376.512 68.568 376.673C67.106 377.287 65.575 377.75 64.0748 378.263C63.8173 378.356 63.6245 377.982 63.8962 377.87C65.3487 377.261 66.8105 376.6 68.3059 376.101Z" fill="#222221"/>
<path d="M66.8578 374.394C67.2688 374.239 67.5593 374.821 67.146 375.006C65.4528 375.777 63.688 376.38 61.9637 377.053C61.6945 377.157 61.4945 376.757 61.7614 376.636C63.4499 375.88 65.124 375.047 66.8578 374.394Z" fill="#222221"/>
<path d="M121.834 660.317C121.595 661.688 120.591 662.155 119.183 662.255C116.996 662.38 114.536 661.638 112.356 661.321L106.449 660.48C106.799 664.915 105.158 669.093 102.351 673.132C104.402 673.77 104.137 677.233 103.575 678.863C102.573 681.843 99.7835 682.712 96.9607 683.259C96.8385 683.272 96.7162 683.235 96.6207 683.158C96.5252 683.081 96.4643 682.968 96.4514 682.846C96.223 680.168 95.1989 676.144 97.3575 674.006C97.8722 673.493 98.5056 673.114 99.2016 672.904C99.8975 672.694 100.635 672.659 101.347 672.802C101.35 672.699 101.379 672.599 101.432 672.511C104.014 668.422 105.485 664.419 105.108 660.322C103.981 660.157 102.794 660.03 101.577 659.906C101.631 659.999 101.657 660.105 101.653 660.213C101.648 660.32 101.613 660.424 101.551 660.511C100.161 662.485 98.7821 664.467 97.4032 666.45C96.5281 667.694 95.6465 669.624 94.4638 670.581C92.9043 671.839 91.2782 671.213 89.4001 670.782C83.323 669.381 77.5351 666.937 72.2938 663.558C67.1896 660.275 60.5982 655.295 57.772 649.716C56.9709 648.119 57.4055 647.418 58.4254 646.008C60.7352 642.702 63.2098 639.515 65.8397 636.459L64.9765 635.418C63.4734 633.568 61.9703 631.719 60.4672 629.869C59.4673 628.622 57.7688 627.057 57.1569 625.566C56.6719 624.386 56.7091 623.392 57.7308 622.798C57.479 622.594 57.6362 622.096 57.9761 622.191C64.6022 624.005 71.1676 625.94 77.8857 627.383C83.3779 628.572 89.4462 629.062 94.3895 631.958C99.9299 635.205 103.56 641.36 108.208 645.685C113.001 650.147 118.086 654.238 122.264 659.33C122.324 659.419 122.36 659.522 122.369 659.628C122.379 659.735 122.361 659.843 122.318 659.941C122.275 660.039 122.209 660.125 122.124 660.191C122.039 660.257 121.939 660.3 121.834 660.317ZM97.3744 682.21C99.1757 681.859 100.964 681.383 102.078 679.774C102.874 678.628 103.892 674.751 101.99 673.892C102.47 674.675 102.695 675.587 102.632 676.503C102.569 677.419 102.223 678.293 101.641 679.003C101.585 679.054 101.513 679.083 101.437 679.085C101.362 679.087 101.288 679.062 101.229 679.015C101.17 678.967 101.13 678.9 101.117 678.826C101.103 678.751 101.117 678.674 101.155 678.609C101.593 678.016 101.873 677.321 101.968 676.59C102.062 675.859 101.969 675.116 101.696 674.431C101.616 675.653 101.191 676.827 100.47 677.817C100.196 678.154 99.7349 677.752 99.9602 677.404C100.637 676.361 101.065 675.177 101.21 673.943C100.511 674.844 99.8929 675.806 99.3646 676.817C99.3234 676.887 99.2584 676.939 99.1816 676.964C99.1049 676.988 99.0217 676.984 98.9477 676.952C98.8736 676.92 98.8138 676.862 98.7795 676.789C98.7451 676.716 98.7386 676.633 98.7611 676.556C99.2171 675.451 99.8683 674.437 100.683 673.563C99.8437 673.599 99.0423 673.925 98.4156 674.485C97.7889 675.046 97.3755 675.806 97.2457 676.636C96.8772 678.366 97.2152 680.441 97.3605 682.227L97.3744 682.21ZM106.353 659.406C111.757 660.305 119.304 661.368 120.62 660.235C115.71 659.729 110.835 658.914 106.027 657.796C106.144 658.365 106.252 658.898 106.353 659.406ZM120.185 658.877C115.984 654.071 111.002 650.11 106.392 645.692C101.879 641.363 98.3937 635.287 92.7059 632.433C87.3117 629.73 80.8312 629.305 75.0375 627.938C69.936 626.772 64.9031 625.324 59.962 623.601C63.853 627.948 67.6676 632.366 71.51 636.749L78.2252 644.408C80.1943 646.658 82.0763 649.425 84.4911 651.229C87.2962 653.36 91.5656 653.625 94.9228 654.278L104.018 656.016L104.151 656.039C103.769 655.079 103.309 654.152 102.776 653.266C99.3996 647.629 93.6447 644.085 88.3853 640.421C88.0648 640.162 88.4031 639.592 88.7688 639.784C95.2149 643.528 101.992 648.033 105.108 655.127C105.285 655.517 105.425 655.905 105.583 656.308C110.384 657.297 115.269 658.44 120.166 658.9L120.185 658.877ZM105.007 659.206C104.912 658.642 104.786 658.084 104.627 657.534C103.418 657.284 102.192 657.03 101 656.804C97.7618 656.183 94.5018 655.558 91.2205 654.928C88.9905 654.486 86.632 654.168 84.6425 652.973C82.4284 651.634 80.7439 649.302 79.066 647.384L72.3566 639.729C67.6221 634.329 62.839 628.965 58.1762 623.5C57.3655 625.308 63.1926 631.489 64.0637 632.555C65.8705 634.771 67.6985 636.973 69.5476 639.16C73.6161 644.001 77.6675 649.929 82.6933 653.811C87.719 657.694 95.0042 657.652 100.964 658.51C101.509 658.61 103.018 658.865 105.007 659.206ZM88.4041 669.273C92.0517 670.2 93.4205 670.02 95.6603 666.858C97.3367 664.5 99.0131 662.142 100.69 659.785C94.4196 659.17 87.4131 658.621 82.5057 655.119C79.0757 652.672 76.445 648.957 73.72 645.792C71.2029 642.861 68.7213 639.903 66.2751 636.916C64.6741 639.477 62.8267 641.886 61.0333 644.31C60.0462 645.633 58.8471 646.634 58.8987 648.325C58.9444 649.86 59.8505 650.66 60.8327 651.788C67.9675 660.353 77.6202 666.453 88.4194 669.219L88.4041 669.273Z" fill="#222221"/>
<path d="M102.064 679.791C100.95 681.401 99.1617 681.876 97.3605 682.227C97.229 680.424 96.8886 678.375 97.2203 676.644C97.3502 675.813 97.7635 675.054 98.3902 674.493C99.0169 673.933 99.8183 673.607 100.658 673.571C99.8429 674.445 99.1917 675.459 98.7357 676.564C98.7132 676.641 98.7197 676.724 98.7541 676.797C98.7884 676.87 98.8482 676.928 98.9223 676.96C98.9963 676.992 99.0795 676.996 99.1563 676.971C99.233 676.947 99.298 676.894 99.3392 676.825C99.8675 675.814 100.485 674.852 101.185 673.95C101.039 675.185 100.612 676.369 99.9348 677.412C99.7095 677.76 100.193 678.181 100.444 677.825C101.166 676.835 101.591 675.661 101.671 674.439C101.944 675.124 102.037 675.867 101.942 676.598C101.848 677.329 101.568 678.024 101.129 678.617C101.091 678.682 101.078 678.759 101.091 678.833C101.105 678.908 101.145 678.975 101.204 679.023C101.262 679.07 101.336 679.095 101.412 679.093C101.488 679.091 101.56 679.062 101.616 679.011C102.198 678.301 102.544 677.427 102.607 676.511C102.669 675.595 102.445 674.683 101.965 673.9C103.878 674.768 102.86 678.645 102.064 679.791Z" fill="#6F6F6F"/>
<path d="M120.602 660.258C119.29 661.385 111.738 660.328 106.334 659.429C106.252 658.898 106.162 658.342 106.008 657.818C110.817 658.937 115.691 659.751 120.602 660.258Z" fill="#7E5279"/>
<path d="M114.831 655.961C115.255 655.964 115.348 656.598 114.906 656.629C113.353 656.729 111.794 656.574 110.292 656.17C109.936 656.071 109.994 655.531 110.377 655.585C111.85 655.821 113.339 655.947 114.831 655.961Z" fill="#222221"/>
<path d="M114.781 654.736C115.21 654.78 115.1 655.431 114.682 655.385C113.803 655.299 112.925 655.213 112.048 655.043C111.776 654.993 111.758 654.524 112.063 654.534C112.97 654.549 113.886 654.636 114.781 654.736Z" fill="#222221"/>
<path d="M106.373 645.715C110.984 650.133 115.965 654.094 120.166 658.9C115.269 658.44 110.384 657.297 105.555 656.342C105.415 655.954 105.252 655.547 105.08 655.161C101.964 648.068 95.21 643.581 88.741 639.818C88.3845 639.615 88.0369 640.196 88.3574 640.456C93.6169 644.12 99.3717 647.664 102.749 653.301C103.281 654.186 103.741 655.113 104.123 656.073L103.99 656.051L94.9042 654.301C91.547 653.648 87.2776 653.383 84.4725 651.252C82.0717 649.43 80.1815 646.685 78.2066 644.431L71.4915 636.772C67.649 632.389 63.8344 627.971 59.9434 623.624C64.8845 625.347 69.9174 626.795 75.0189 627.961C80.8126 629.328 87.3102 629.767 92.6874 632.456C98.3752 635.31 101.861 641.386 106.373 645.715ZM114.906 656.629C115.348 656.599 115.255 655.964 114.831 655.961C113.343 655.95 111.858 655.827 110.388 655.595C110.006 655.54 109.976 656.104 110.303 656.18C111.803 656.579 113.358 656.731 114.906 656.629ZM114.682 655.385C115.1 655.431 115.187 654.762 114.781 654.736C113.903 654.65 112.971 654.549 112.086 654.553C111.781 654.543 111.799 655.012 112.071 655.062C112.895 655.227 113.809 655.304 114.682 655.385ZM71.1903 629.504C71.5308 629.505 71.5482 628.922 71.2067 628.91C70.1233 628.867 69.0646 628.758 67.9851 628.651C67.7839 628.63 67.6693 628.936 67.8806 629.003C68.9583 629.345 70.0823 629.521 71.2132 629.522L71.1903 629.504ZM70.0574 628.188C70.378 628.249 70.5537 627.727 70.2185 627.626C68.8877 627.24 67.4946 627.116 66.1164 627.26C65.93 627.28 65.9143 627.58 66.1098 627.596C66.7765 627.663 67.4204 627.71 68.094 627.791C68.7675 627.873 69.4195 628.098 70.0803 628.206L70.0574 628.188Z" fill="#7E5279"/>
<path d="M104.627 657.534C104.786 658.084 104.912 658.642 105.007 659.206C103.018 658.865 101.48 658.586 100.948 658.506C94.9995 657.658 87.6296 657.64 82.6772 653.807C77.7247 649.975 73.5771 643.979 69.5315 639.156C67.6854 636.965 65.8574 634.764 64.0475 632.551C63.1765 631.485 57.3494 625.304 58.1601 623.497C62.8275 628.956 67.6106 634.32 72.3405 639.726L79.0499 647.38C80.7278 649.299 82.4123 651.631 84.6264 652.969C86.6159 654.164 88.9744 654.483 91.2044 654.924C94.4734 655.57 97.7371 656.198 100.996 656.81C102.203 657.039 103.417 657.284 104.627 657.534Z" fill="#7E5279"/>
<path d="M95.6602 666.858C93.4205 670.02 92.0516 670.2 88.404 669.273C77.6049 666.507 67.9522 660.407 60.8174 651.842C59.8537 650.691 58.9361 649.881 58.8833 648.379C58.8317 646.687 60.0308 645.687 61.0179 644.364C62.8113 641.939 64.6587 639.531 66.2597 636.97C68.7221 639.944 71.2038 642.903 73.7047 645.846C76.4343 649.005 79.0604 652.726 82.4904 655.173C87.3862 658.666 94.3871 659.209 100.674 659.839C99.0118 662.163 97.3404 664.503 95.6602 666.858ZM64.7655 652.538C64.7909 652.57 64.8225 652.596 64.8584 652.615C64.8944 652.634 64.9338 652.645 64.9743 652.648C65.0148 652.651 65.0555 652.645 65.0938 652.632C65.132 652.618 65.1671 652.597 65.1968 652.569C65.2265 652.542 65.2501 652.508 65.2662 652.471C65.2822 652.433 65.2904 652.393 65.2902 652.353C65.2901 652.312 65.2815 652.272 65.265 652.235C65.2486 652.198 65.2247 652.164 65.1948 652.137C64.286 651.211 63.3958 650.262 62.4732 649.353C62.4317 649.319 62.3791 649.301 62.3252 649.303C62.2714 649.304 62.22 649.326 62.1808 649.363C62.1415 649.4 62.1171 649.45 62.1122 649.503C62.1072 649.557 62.122 649.61 62.1538 649.654C63.0001 650.634 63.9088 651.559 64.7655 652.538ZM63.8925 653.452C63.9517 653.5 64.0275 653.522 64.1033 653.514C64.1791 653.506 64.2486 653.468 64.2965 653.409C64.3445 653.35 64.367 653.274 64.359 653.198C64.3511 653.123 64.3134 653.053 64.2542 653.005C62.7707 651.898 61.5423 650.486 60.6518 648.864C60.5257 648.61 60.1165 648.752 60.239 649.022C61.008 650.818 62.2781 652.353 63.8971 653.446L63.8925 653.452Z" fill="#7E5279"/>
<path d="M65.1948 652.137C65.2248 652.164 65.2487 652.198 65.2651 652.235C65.2815 652.272 65.2901 652.312 65.2903 652.353C65.2905 652.393 65.2823 652.433 65.2662 652.471C65.2501 652.508 65.2265 652.542 65.1968 652.569C65.1672 652.597 65.1321 652.618 65.0938 652.632C65.0555 652.645 65.0149 652.651 64.9744 652.648C64.9339 652.645 64.8944 652.634 64.8585 652.615C64.8226 652.596 64.7909 652.57 64.7656 652.538C63.895 651.577 63.0002 650.634 62.1539 649.654C62.1221 649.611 62.1073 649.557 62.1122 649.503C62.1172 649.45 62.1416 649.4 62.1808 649.363C62.2201 649.326 62.2714 649.305 62.3253 649.303C62.3791 649.301 62.4317 649.319 62.4732 649.354C63.3959 650.262 64.2861 651.211 65.1948 652.137Z" fill="#222221"/>
<path d="M64.2542 653.005C64.3134 653.053 64.3511 653.123 64.359 653.199C64.367 653.274 64.3445 653.35 64.2965 653.409C64.2486 653.469 64.179 653.506 64.1033 653.514C64.0275 653.522 63.9517 653.5 63.8925 653.452C62.2743 652.357 61.0058 650.819 60.239 649.022C60.1164 648.752 60.5543 648.633 60.6518 648.864C61.5423 650.486 62.7707 651.899 64.2542 653.005Z" fill="#222221"/>
<path d="M71.2296 628.929C71.5711 628.94 71.5537 629.523 71.2132 629.522C70.0909 629.524 68.9748 629.355 67.9035 629.021C67.6922 628.954 67.8068 628.649 68.008 628.67C69.0875 628.776 70.1462 628.885 71.2296 628.929Z" fill="#222221"/>
<path d="M70.2413 627.645C70.5766 627.746 70.4008 628.267 70.0802 628.206C69.4195 628.097 68.7822 627.913 68.1168 627.81C67.4515 627.707 66.7948 627.687 66.1326 627.615C65.9372 627.598 65.9528 627.298 66.1393 627.279C67.5174 627.134 68.9106 627.258 70.2413 627.645Z" fill="#222221"/>
<path d="M102.74 95.5368C103.555 94.5479 104.375 93.5744 105.181 92.5798C105.153 92.6452 105.149 92.7177 105.167 92.786C105.186 92.8543 105.226 92.9145 105.283 92.9572C105.743 93.241 106.22 93.4957 106.712 93.7198C107.2 93.968 107.673 94.2203 108.166 94.451C108.221 94.483 108.288 94.4916 108.35 94.4748C108.412 94.4581 108.465 94.4173 108.497 94.3615C108.529 94.3057 108.537 94.2395 108.521 94.1774C108.504 94.1153 108.463 94.0624 108.407 94.0303C107.955 93.7312 107.475 93.4557 107.017 93.1992C106.565 92.901 106.092 92.6338 105.603 92.3996C105.553 92.3757 105.497 92.3649 105.442 92.3683C105.387 92.3717 105.333 92.3892 105.286 92.4191C106.883 90.4671 108.471 88.5172 110.039 86.5484C112.385 88.2284 114.763 89.842 117.019 91.6456C118.178 92.572 125.247 97.6289 121.878 99.4732C121.852 99.4867 121.83 99.5052 121.812 99.5276C121.794 99.5499 121.781 99.5756 121.773 99.6031C121.765 99.6306 121.762 99.6595 121.766 99.688C121.769 99.7165 121.778 99.744 121.792 99.769C113.22 108.416 104.903 117.307 96.7323 126.308C88.4511 135.422 79.8866 144.496 72.1626 154.112C69.8388 152.607 59.2465 146.255 59.705 143.486C59.8164 143.527 59.9376 143.532 60.0521 143.501C60.1665 143.47 60.2686 143.405 60.3443 143.313L64.0148 139.28C65.0932 140.145 66.2225 140.944 67.3966 141.672C67.6887 141.866 68.0417 141.399 67.7686 141.183C66.7389 140.31 65.6585 139.498 64.5332 138.752C65.5154 137.677 66.4943 136.6 67.4699 135.521C67.4875 135.491 67.5124 135.468 67.5422 135.451L70.7764 131.883C71.0231 132.081 71.2798 132.265 71.5455 132.436C71.9695 132.751 72.3851 133.035 72.8308 133.37C73.1074 133.568 73.4472 133.112 73.1895 132.893C72.7823 132.548 72.3773 132.211 71.9645 131.876C71.7522 131.702 71.5295 131.49 71.292 131.314L73.9839 128.339C74.2508 128.531 74.5366 128.702 74.7957 128.897C75.284 129.236 75.8073 129.582 76.2725 129.927C76.5136 130.085 76.814 129.698 76.5821 129.513C76.1106 129.145 75.6335 128.786 75.1544 128.42C74.9148 128.236 74.6788 128.036 74.4294 127.847L76.7951 125.224L76.8055 125.263C77.2193 125.448 77.6627 125.56 78.0611 125.75C78.4755 125.978 78.8593 126.257 79.2032 126.582C79.229 126.607 79.2594 126.627 79.2928 126.64C79.3262 126.653 79.3619 126.66 79.3978 126.659C79.4337 126.659 79.4692 126.651 79.5022 126.637C79.5352 126.623 79.5651 126.602 79.5902 126.576C79.6152 126.551 79.635 126.52 79.6483 126.487C79.6615 126.453 79.6681 126.418 79.6676 126.382C79.6671 126.346 79.6596 126.31 79.6453 126.277C79.6311 126.244 79.6106 126.214 79.5848 126.189C78.9772 125.456 78.1593 124.927 77.2415 124.674L80.214 121.391C80.2572 121.44 80.3127 121.477 80.3747 121.497C81.1815 121.767 81.9134 122.223 82.5113 122.828C82.7501 123.07 83.212 122.73 82.9937 122.442C82.4235 121.679 81.6262 121.116 80.7163 120.834C81.5786 119.866 82.4471 118.92 83.3016 117.954C84.1957 118.319 85.0248 118.826 85.757 119.456C85.811 119.497 85.8782 119.517 85.9462 119.513C86.0141 119.508 86.0779 119.479 86.1258 119.43C86.1736 119.382 86.2021 119.318 86.2058 119.25C86.2096 119.182 86.1884 119.115 86.1463 119.061C85.4919 118.347 84.6987 117.774 83.8152 117.377L86.4209 114.45C87.214 114.938 88.0982 115.336 88.9271 115.773C88.989 115.804 89.0603 115.81 89.1266 115.79C89.1928 115.77 89.2489 115.725 89.2833 115.665C89.3178 115.605 89.3281 115.534 89.312 115.467C89.2959 115.4 89.2547 115.341 89.1969 115.303C88.4296 114.849 87.6709 114.335 86.8812 113.921L89.8617 110.545C90.84 111.107 91.8893 111.534 92.8776 112.011C93.1627 112.149 93.4009 111.746 93.127 111.588C92.2151 111.058 91.2936 110.431 90.3542 109.982C91.2067 109.008 92.0612 108.042 92.8731 107.07C92.8961 107.128 92.9354 107.178 92.9861 107.213C93.4193 107.501 93.9249 107.629 94.4001 107.889C94.8636 108.184 95.3 108.52 95.7042 108.892C95.9206 109.082 96.3124 108.819 96.122 108.573C95.7666 108.103 95.3403 107.691 94.8583 107.352C94.402 106.999 93.8722 106.752 93.308 106.631L96.4452 102.948C96.4775 102.986 96.5168 103.018 96.5612 103.041C97.4781 103.529 98.3873 104.019 99.3133 104.479C99.3752 104.51 99.4466 104.516 99.5128 104.496C99.579 104.476 99.6351 104.431 99.6696 104.371C99.7041 104.311 99.7143 104.241 99.6982 104.173C99.6822 104.106 99.641 104.047 99.5831 104.009C98.705 103.42 97.8378 102.903 96.9546 102.356C97.8275 101.335 98.7081 100.312 99.5768 99.2757C100.563 99.9735 101.682 100.462 102.865 100.71C103.229 100.801 103.352 100.28 103.011 100.149C102.485 99.9445 101.954 99.7242 101.438 99.4669C100.923 99.2096 100.522 98.8882 100.03 98.6904C100.768 97.8133 101.516 96.9418 102.252 96.0569C102.275 96.1363 102.326 96.2047 102.395 96.2497C103.317 96.7529 104.266 97.2027 105.239 97.5971C105.627 97.7813 105.961 97.2119 105.582 97.0003C104.662 96.4605 103.714 95.9719 102.74 95.5368ZM58.8714 142.695C57.5101 145.211 60.4177 146.889 62.1443 148.232C65.2911 150.643 68.5876 152.852 72.0139 154.846C72.0758 154.88 72.1458 154.895 72.216 154.891C72.2634 154.956 72.3255 155.009 72.3974 155.046C72.4692 155.082 72.5487 155.101 72.6293 155.101C72.7099 155.101 72.7893 155.082 72.8611 155.045C72.933 155.009 72.9951 154.956 73.0424 154.891C81.4564 145.84 89.3677 136.306 97.6714 127.154C105.975 118.001 114.386 108.968 122.75 99.8573C122.8 99.8 122.83 99.7281 122.835 99.6524C124.707 98.75 123.638 96.262 122.39 94.9464C118.795 91.3325 114.748 88.1982 110.35 85.6212C110.318 85.5912 110.279 85.5681 110.238 85.5532C110.196 85.5383 110.152 85.5321 110.108 85.5347C110.064 85.5373 110.021 85.5489 109.981 85.5686C109.942 85.5884 109.907 85.6159 109.878 85.6495C92.8571 104.381 76.4817 123.697 59.3977 142.379C59.3977 142.379 59.4081 142.418 59.3506 142.45C59.2551 142.436 59.1576 142.452 59.0717 142.495C58.9858 142.539 58.9157 142.609 58.8714 142.695Z" fill="#222221"/>
<path d="M59.7134 143.517C59.2548 146.286 69.8471 152.638 72.1709 154.143C79.8949 144.527 88.4363 135.459 96.7406 126.339C104.927 117.334 113.243 108.442 121.801 99.7998C121.786 99.7749 121.777 99.7473 121.774 99.7189C121.771 99.6904 121.773 99.6615 121.781 99.634C121.789 99.6064 121.802 99.5808 121.82 99.5584C121.838 99.5361 121.861 99.5176 121.886 99.504C125.286 97.6186 118.217 92.5617 117.057 91.6353C114.802 89.8316 112.423 88.218 110.077 86.538C108.51 88.5069 106.921 90.4568 105.325 92.4088C105.371 92.3789 105.425 92.3614 105.481 92.358C105.536 92.3546 105.591 92.3653 105.642 92.3893C106.131 92.6235 106.603 92.8906 107.056 93.1889C107.518 93.4608 108.024 93.7125 108.446 94.02C108.502 94.052 108.542 94.1049 108.559 94.167C108.576 94.2291 108.567 94.2954 108.535 94.3512C108.503 94.4069 108.45 94.4477 108.388 94.4645C108.326 94.4813 108.26 94.4727 108.204 94.4406C107.712 94.21 107.247 93.9556 106.75 93.7095C106.259 93.4878 105.783 93.2357 105.323 92.9546C105.267 92.9119 105.226 92.8517 105.208 92.7834C105.189 92.715 105.194 92.6425 105.221 92.5772C104.416 93.5717 103.596 94.5452 102.781 95.5341C103.766 95.9704 104.727 96.4613 105.657 97.0048C106.044 97.2142 105.711 97.8166 105.314 97.6015C104.342 97.2072 103.392 96.7573 102.471 96.2541C102.402 96.2092 102.351 96.1407 102.328 96.0614C101.592 96.9462 100.844 97.8177 100.106 98.6948C100.599 98.9003 101.084 99.2569 101.514 99.4714C101.944 99.6858 102.56 99.949 103.087 100.154C103.428 100.285 103.266 100.816 102.941 100.714C101.758 100.466 100.639 99.978 99.6524 99.2801C98.7899 100.34 97.9031 101.34 97.0302 102.361C97.9134 102.907 98.7867 103.448 99.6587 104.014C99.7165 104.052 99.7577 104.11 99.7738 104.178C99.7899 104.245 99.7796 104.316 99.7451 104.376C99.7107 104.436 99.6546 104.48 99.5884 104.5C99.5221 104.52 99.4508 104.514 99.3889 104.483C98.4397 104.029 97.5536 103.533 96.6367 103.045C96.5924 103.022 96.553 102.991 96.5208 102.953L93.3836 106.635C93.9208 106.766 94.4237 107.01 94.8583 107.352C95.3635 107.68 95.8134 108.085 96.1913 108.554C96.3817 108.8 95.99 109.063 95.7735 108.874C95.3693 108.501 94.9329 108.166 94.4694 107.87C94.025 107.602 93.4886 107.483 93.0555 107.195C93.0047 107.159 92.9654 107.109 92.9424 107.052C92.092 108.034 91.2375 109 90.4235 109.964C91.3789 110.441 92.2844 111.039 93.1963 111.57C93.4702 111.727 93.232 112.13 92.9469 111.993C91.9894 111.507 90.8974 111.075 89.931 110.526L86.9505 113.902C87.7402 114.317 88.4989 114.831 89.2662 115.285C89.324 115.322 89.3652 115.381 89.3813 115.448C89.3974 115.516 89.3871 115.587 89.3526 115.647C89.3182 115.706 89.2621 115.751 89.1959 115.771C89.1297 115.791 89.0583 115.785 88.9964 115.754C88.1675 115.317 87.2833 114.919 86.4902 114.431L83.8845 117.358C84.768 117.755 85.5613 118.328 86.2156 119.043C86.2577 119.096 86.2789 119.163 86.2751 119.231C86.2714 119.299 86.2429 119.363 86.1951 119.412C86.1473 119.46 86.0834 119.489 86.0155 119.494C85.9476 119.499 85.8803 119.479 85.8263 119.437C85.0941 118.807 84.265 118.3 83.3709 117.935C82.5164 118.902 81.6479 119.847 80.7856 120.816C81.6955 121.097 82.4928 121.66 83.063 122.423C83.2813 122.711 82.8194 123.051 82.5806 122.81C81.9827 122.205 81.2508 121.748 80.444 121.478C80.382 121.458 80.3266 121.422 80.2833 121.373L77.3108 124.655C78.2286 124.909 79.0465 125.438 79.6541 126.171C79.6799 126.196 79.7004 126.226 79.7147 126.259C79.7289 126.292 79.7364 126.327 79.7369 126.363C79.7374 126.399 79.7309 126.435 79.7176 126.468C79.7043 126.502 79.6845 126.532 79.6595 126.558C79.6344 126.583 79.6046 126.604 79.5715 126.618C79.5385 126.632 79.5031 126.64 79.4671 126.641C79.4312 126.641 79.3955 126.634 79.3621 126.621C79.3287 126.608 79.2983 126.588 79.2725 126.563C78.9286 126.239 78.5448 125.959 78.1304 125.731C77.7258 125.518 77.2824 125.407 76.8748 125.244L76.8644 125.206L74.4987 127.828C74.7481 128.017 74.9841 128.218 75.2237 128.401C75.7029 128.767 76.1799 129.126 76.6514 129.494C76.8833 129.68 76.5829 130.067 76.3418 129.909C75.8458 129.572 75.3302 129.223 74.865 128.878C74.6059 128.683 74.3201 128.513 74.0532 128.32L71.3613 131.296C71.5988 131.471 71.8215 131.684 72.0339 131.858C72.4466 132.192 72.8517 132.529 73.2588 132.874C73.5165 133.093 73.1767 133.549 72.9001 133.351C72.4628 133.048 72.045 132.756 71.6148 132.417C71.3491 132.246 71.0924 132.062 70.8457 131.865L67.6115 135.433C67.66 135.387 67.7231 135.359 67.7898 135.355C67.8564 135.35 67.9226 135.369 67.9768 135.408C68.778 136.018 69.5252 136.643 70.2733 137.209C70.5268 137.414 70.1983 137.849 69.9335 137.665C69.1449 137.101 68.3295 136.561 67.5634 135.958C67.5304 135.931 67.5034 135.897 67.4841 135.858C67.4649 135.82 67.4538 135.778 67.4515 135.735C67.4493 135.692 67.4559 135.65 67.471 135.609C67.4861 135.569 67.5093 135.533 67.5392 135.502C66.565 136.586 65.5861 137.663 64.6025 138.733C65.7278 139.48 66.8082 140.291 67.838 141.165C68.111 141.38 67.758 141.848 67.4659 141.654C66.2918 140.925 65.1625 140.126 64.0842 139.262L60.4136 143.295C60.3412 143.408 60.2316 143.492 60.1037 143.533C59.9758 143.573 59.8377 143.568 59.7134 143.517ZM71.528 149.928C71.4635 149.994 71.3756 150.031 71.2837 150.032C71.1917 150.033 71.1031 149.997 71.0375 149.932C70.9718 149.868 70.9345 149.78 70.9337 149.688C70.9328 149.596 70.9686 149.508 71.033 149.442C71.7034 148.72 72.4291 148.051 73.2034 147.442C73.2492 147.409 73.3053 147.393 73.3617 147.397C73.4182 147.401 73.4713 147.425 73.5118 147.465C73.5522 147.504 73.5773 147.557 73.5825 147.613C73.5878 147.67 73.573 147.726 73.5406 147.773C72.9283 148.544 72.2553 149.264 71.528 149.928ZM72.9501 150.726C72.8845 150.78 72.8011 150.808 72.716 150.804C72.6309 150.8 72.5503 150.765 72.4897 150.705C72.4292 150.645 72.3932 150.565 72.3886 150.48C72.384 150.395 72.4112 150.311 72.4649 150.245C73.5867 149.113 74.6104 147.888 75.5251 146.584C75.5571 146.528 75.61 146.487 75.6721 146.47C75.7343 146.453 75.8005 146.462 75.8563 146.494C75.9121 146.526 75.9528 146.579 75.9696 146.641C75.9864 146.703 75.9778 146.769 75.9458 146.825C75.2029 148.303 74.1863 149.627 72.9501 150.726ZM110.888 92.0791C110.661 92.4298 110.066 92.0946 110.331 91.7587L111.425 90.2729C111.631 89.9942 112.096 90.2486 111.897 90.5504L110.888 92.0791ZM112.025 93.2265C111.801 93.5598 111.284 93.2696 111.487 92.9174C111.974 92.0537 112.68 91.333 113.533 90.8272C113.771 90.6969 114.06 91.0321 113.839 91.224C113.143 91.8002 112.535 92.474 112.032 93.2244L112.025 93.2265ZM116.284 96.4806C115.587 96.5659 114.884 96.3802 114.321 95.9618C113.757 95.5435 113.375 94.9245 113.255 94.2329C113.224 93.9327 113.265 93.6294 113.377 93.3488C113.488 93.0683 113.666 92.819 113.894 92.6222C113.92 92.5721 113.958 92.5298 114.005 92.4996C114.052 92.4695 114.106 92.4525 114.162 92.4507C114.37 92.334 114.606 92.2753 114.844 92.2806C115.082 92.286 115.315 92.3553 115.517 92.4812C115.962 92.5011 116.394 92.6378 116.769 92.8773C117.144 93.1168 117.449 93.4508 117.655 93.8458C117.799 94.102 117.878 94.3902 117.883 94.6844C117.889 94.9786 117.82 95.2694 117.685 95.5307C117.55 95.792 117.352 96.0155 117.108 96.1809C116.865 96.3464 116.584 96.4487 116.292 96.4785L116.284 96.4806Z" fill="#A4CED4"/>
<path d="M71.033 149.442C70.9686 149.508 70.9328 149.596 70.9337 149.688C70.9345 149.78 70.9718 149.868 71.0375 149.932C71.1031 149.997 71.1917 150.033 71.2837 150.032C71.3756 150.031 71.4635 149.994 71.528 149.928C72.2553 149.264 72.9283 148.544 73.5406 147.773C73.573 147.726 73.5878 147.67 73.5825 147.613C73.5773 147.557 73.5522 147.504 73.5118 147.465C73.4713 147.425 73.4182 147.401 73.3617 147.397C73.3053 147.393 73.2492 147.409 73.2034 147.442C72.4291 148.051 71.7034 148.72 71.033 149.442Z" fill="#222221"/>
<path d="M67.4678 135.513C67.4379 135.543 67.4146 135.58 67.3995 135.62C67.3844 135.66 67.3778 135.703 67.3801 135.746C67.3823 135.789 67.3935 135.831 67.4127 135.869C67.4319 135.908 67.4589 135.942 67.4919 135.969C68.2623 136.587 69.0734 137.112 69.8621 137.676C70.1269 137.86 70.4554 137.424 70.2018 137.22C69.4392 136.6 68.692 135.975 67.9054 135.419C67.8511 135.38 67.785 135.361 67.7183 135.366C67.6516 135.37 67.5886 135.398 67.54 135.444C67.5103 135.46 67.4853 135.484 67.4678 135.513Z" fill="#222221"/>
<path d="M72.4649 150.245C72.4112 150.311 72.384 150.395 72.3886 150.48C72.3931 150.565 72.4292 150.645 72.4897 150.705C72.5502 150.765 72.6309 150.8 72.716 150.804C72.801 150.808 72.8845 150.78 72.9501 150.726C74.1863 149.627 75.2028 148.303 75.9457 146.825C75.9778 146.769 75.9864 146.703 75.9696 146.641C75.9528 146.579 75.912 146.526 75.8563 146.494C75.8005 146.462 75.7342 146.453 75.6721 146.47C75.61 146.487 75.5571 146.528 75.5251 146.584C74.6104 147.888 73.5867 149.113 72.4649 150.245Z" fill="#222221"/>
<path d="M110.331 91.7585C110.089 92.0883 110.661 92.4297 110.888 92.0789L111.897 90.5503C112.096 90.2485 111.631 89.9941 111.425 90.2728L110.331 91.7585Z" fill="#222221"/>
<path d="M111.501 92.9384C111.298 93.2906 111.815 93.5808 112.039 93.2475C112.543 92.4958 113.155 91.8213 113.853 91.245C114.074 91.0531 113.785 90.7179 113.547 90.8482C112.694 91.354 111.988 92.0747 111.501 92.9384Z" fill="#222221"/>
<path d="M113.263 94.2307C113.383 94.9223 113.765 95.5413 114.328 95.9597C114.892 96.378 115.595 96.5637 116.292 96.4784C116.584 96.4486 116.865 96.3463 117.108 96.1809C117.352 96.0154 117.55 95.7919 117.685 95.5306C117.82 95.2694 117.889 94.9785 117.883 94.6843C117.878 94.3901 117.799 94.1019 117.655 93.8457C117.452 93.4577 117.153 93.1286 116.786 92.8903C116.419 92.6521 115.997 92.5128 115.56 92.4861C115.358 92.3602 115.125 92.2909 114.887 92.2856C114.648 92.2802 114.413 92.3389 114.205 92.4556C114.149 92.4575 114.095 92.4744 114.047 92.5046C114 92.5347 113.962 92.5771 113.937 92.6271C113.703 92.8196 113.519 93.0662 113.402 93.3456C113.284 93.625 113.237 93.9288 113.263 94.2307ZM114.68 95.0709C114.385 94.8095 114.201 94.4455 114.165 94.053C114.142 93.5386 114.518 92.9741 115.096 93.2148C115.21 93.2638 115.338 93.2676 115.454 93.2255C115.781 93.2852 116.094 93.4053 116.376 93.5796C116.619 93.736 116.805 93.9673 116.905 94.2384C117.005 94.5095 117.014 94.8057 116.931 95.0825C116.514 95.9555 115.21 95.5641 114.68 95.0709Z" fill="#222221"/>
</svg>
